<svg xmlns="http://www.w3.org/2000/svg" width="432" height="768" viewBox="0 0 432 768" style="background:#0D120D">
<defs>
<pattern id="grid" width="40" height="40" patternUnits="userSpaceOnUse">
<path d="M40,0 L0,0 0,40" fill="none" stroke="#ffffff06" stroke-width="0.5"/>
</pattern>
</defs>
<rect width="432" height="768" fill="url(#grid)"/>

<!-- Top accent bar -->
<rect x="0" y="0" width="432" height="3" fill="#E6BF33"/>

<!-- Corner ornaments TL -->
<path d="M 16,10 L 68,10 M 16,10 L 16,42" stroke="#E6BF33" stroke-width="1" opacity="0.7" fill="none"/>
<circle cx="16" cy="10" r="2.5" fill="#E6BF33"/>
<!-- Corner ornaments TR -->
<path d="M 416,10 L 364,10 M 416,10 L 416,42" stroke="#E6BF33" stroke-width="1" opacity="0.7" fill="none"/>
<circle cx="416" cy="10" r="2.5" fill="#E6BF33"/>
<!-- Corner ornaments BL -->
<path d="M 16,758 L 68,758 M 16,758 L 16,726" stroke="#E6BF33" stroke-width="1" opacity="0.3" fill="none"/>
<!-- Corner ornaments BR -->
<path d="M 416,758 L 364,758 M 416,758 L 416,726" stroke="#E6BF33" stroke-width="1" opacity="0.3" fill="none"/>

<!-- Tagline -->
<text x="216" y="30" font-family="Georgia,serif" font-size="10" fill="#706050" text-anchor="middle" letter-spacing="4">♦ FIVE FLOORS · ONE SOUL ♦</text>

<!-- ROULETTE title -->
<text x="216" y="89" font-family="Georgia,serif" font-size="56" font-weight="bold" fill="#F0E6D0" text-anchor="middle">ROULETTE</text>
<!-- ROGUELITE subtitle -->
<text x="216" y="122" font-family="Georgia,serif" font-size="30" fill="#E6BF33" text-anchor="middle" letter-spacing="12">ROGUELITE</text>

<!-- Diamond separator with lore text -->
<line x1="60" y1="142" x2="194" y2="142" stroke="#E6BF3340" stroke-width="1"/>
<path d="M 216,135 L 224,142 L 216,149 L 208,142 Z" fill="#E6BF33"/>
<line x1="238" y1="142" x2="372" y2="142" stroke="#E6BF3340" stroke-width="1"/>
<text x="216" y="165" font-family="Georgia,serif" font-size="12" fill="#A09878" text-anchor="middle" font-style="italic">You made a deal. The Devil dealt.</text>
<text x="216" y="183" font-family="Georgia,serif" font-size="12" fill="#A09878" text-anchor="middle" font-style="italic">Win back your soul — one spin at a time.</text>

<!-- ===== WHEEL SILHOUETTE (r=140, center=(216,335)) ===== -->
<circle cx="216" cy="335" r="154" fill="none" stroke="#E6BF3310" stroke-width="10"/>
<circle cx="216" cy="335" r="147" fill="none" stroke="#E6BF3318" stroke-width="5"/>
<circle cx="216" cy="335" r="143" fill="#160C04"/>
<circle cx="216" cy="335" r="142" fill="none" stroke="#8C6318" stroke-width="5"/>
<circle cx="216" cy="335" r="137" fill="none" stroke="#5A3E10" stroke-width="2"/>

<!-- 12 wheel sectors: P0=(216,195) P1=(286,214) P2=(337,265) P3=(356,335)
     P4=(337,405) P5=(286,456) P6=(216,475) P7=(146,456) P8=(95,405)
     P9=(76,335) P10=(95,265) P11=(146,214) -->
<path d="M216,335 L216,195 A140,140 0 0,1 286,214 Z" fill="#0A6615"/>
<path d="M216,335 L286,214 A140,140 0 0,1 337,265 Z" fill="#9E1010"/>
<path d="M216,335 L337,265 A140,140 0 0,1 356,335 Z" fill="#1A1A1A"/>
<path d="M216,335 L356,335 A140,140 0 0,1 337,405 Z" fill="#9E1010"/>
<path d="M216,335 L337,405 A140,140 0 0,1 286,456 Z" fill="#1A1A1A"/>
<path d="M216,335 L286,456 A140,140 0 0,1 216,475 Z" fill="#9E1010"/>
<path d="M216,335 L216,475 A140,140 0 0,1 146,456 Z" fill="#1A1A1A"/>
<path d="M216,335 L146,456 A140,140 0 0,1 95,405 Z" fill="#9E1010"/>
<path d="M216,335 L95,405 A140,140 0 0,1 76,335 Z" fill="#1A1A1A"/>
<path d="M216,335 L76,335 A140,140 0 0,1 95,265 Z" fill="#9E1010"/>
<path d="M216,335 L95,265 A140,140 0 0,1 146,214 Z" fill="#1A1A1A"/>
<path d="M216,335 L146,214 A140,140 0 0,1 216,195 Z" fill="#9E1010"/>

<!-- Sector dividers -->
<line x1="216" y1="335" x2="216" y2="195" stroke="#3A2808" stroke-width="1"/>
<line x1="216" y1="335" x2="286" y2="214" stroke="#3A2808" stroke-width="1"/>
<line x1="216" y1="335" x2="337" y2="265" stroke="#3A2808" stroke-width="1"/>
<line x1="216" y1="335" x2="356" y2="335" stroke="#3A2808" stroke-width="1"/>
<line x1="216" y1="335" x2="337" y2="405" stroke="#3A2808" stroke-width="1"/>
<line x1="216" y1="335" x2="286" y2="456" stroke="#3A2808" stroke-width="1"/>
<line x1="216" y1="335" x2="216" y2="475" stroke="#3A2808" stroke-width="1"/>
<line x1="216" y1="335" x2="146" y2="456" stroke="#3A2808" stroke-width="1"/>
<line x1="216" y1="335" x2="95" y2="405" stroke="#3A2808" stroke-width="1"/>
<line x1="216" y1="335" x2="76" y2="335" stroke="#3A2808" stroke-width="1"/>
<line x1="216" y1="335" x2="95" y2="265" stroke="#3A2808" stroke-width="1"/>
<line x1="216" y1="335" x2="146" y2="214" stroke="#3A2808" stroke-width="1"/>

<!-- Number labels on sectors -->
<text x="248" y="210" font-family="sans-serif" font-size="9" fill="#F0E6D050" text-anchor="middle">17</text>
<text x="330" y="254" font-family="sans-serif" font-size="9" fill="#F0E6D050" text-anchor="middle">32</text>
<text x="355" y="306" font-family="sans-serif" font-size="9" fill="#F0E6D050" text-anchor="middle">5</text>
<text x="230" y="200" font-family="sans-serif" font-size="9" fill="#F0E6D050" text-anchor="middle">0</text>

<!-- Inner hub -->
<circle cx="216" cy="335" r="58" fill="#0D0807"/>
<circle cx="216" cy="335" r="56" fill="none" stroke="#5A3E10" stroke-width="2"/>
<line x1="216" y1="279" x2="216" y2="391" stroke="#8C6318" stroke-width="2" opacity="0.7"/>
<line x1="160" y1="335" x2="272" y2="335" stroke="#8C6318" stroke-width="2" opacity="0.7"/>
<line x1="176" y1="295" x2="256" y2="375" stroke="#8C6318" stroke-width="1.5" opacity="0.5"/>
<line x1="176" y1="375" x2="256" y2="295" stroke="#8C6318" stroke-width="1.5" opacity="0.5"/>
<circle cx="216" cy="335" r="18" fill="#8C6318"/>
<circle cx="216" cy="335" r="13" fill="#5A3E10"/>
<circle cx="216" cy="335" r="6" fill="#E6BF33"/>

<!-- Ball and pointer -->
<circle cx="216" cy="199" r="7" fill="#F0F0F0"/>
<circle cx="216" cy="199" r="5" fill="#E8E8E8"/>
<polygon points="216,192 222,204 210,204" fill="#E6BF33"/>

<!-- ===== FLOOR PROGRESSION DOTS ===== -->
<text x="216" y="507" font-family="sans-serif" font-size="9" fill="#706050" text-anchor="middle" letter-spacing="3">FIVE REALMS AWAIT</text>

<!-- Dot 1: Velvet Room (current = unlocked gold) -->
<circle cx="146" cy="523" r="8" fill="#E6BF33"/>
<text x="146" y="527" font-family="sans-serif" font-size="8" fill="#0A0806" text-anchor="middle" font-weight="bold">I</text>
<!-- Dots 2-4: locked -->
<circle cx="182" cy="523" r="7" fill="none" stroke="#5A4A30" stroke-width="1.5"/>
<circle cx="216" cy="523" r="7" fill="none" stroke="#5A4A30" stroke-width="1.5"/>
<circle cx="250" cy="523" r="7" fill="none" stroke="#5A4A30" stroke-width="1.5"/>
<!-- Dot 5: Devil (red tint — ominous) -->
<circle cx="286" cy="523" r="7" fill="none" stroke="#9E1010" stroke-width="1.5"/>
<text x="286" y="527" font-family="sans-serif" font-size="8" fill="#9E1010" text-anchor="middle">☩</text>
<!-- Floor name labels -->
<text x="146" y="539" font-family="sans-serif" font-size="8" fill="#E6BF3390" text-anchor="middle">Velvet</text>
<text x="182" y="539" font-family="sans-serif" font-size="8" fill="#5A4A3080" text-anchor="middle">Iron</text>
<text x="216" y="539" font-family="sans-serif" font-size="8" fill="#5A4A3080" text-anchor="middle">Neon</text>
<text x="250" y="539" font-family="sans-serif" font-size="8" fill="#5A4A3080" text-anchor="middle">Sunken</text>
<text x="286" y="539" font-family="sans-serif" font-size="8" fill="#9E101080" text-anchor="middle">Devil</text>
<!-- Connecting line between dots -->
<line x1="154" y1="523" x2="175" y2="523" stroke="#5A4A3040" stroke-width="1"/>
<line x1="189" y1="523" x2="209" y2="523" stroke="#5A4A3040" stroke-width="1"/>
<line x1="223" y1="523" x2="243" y2="523" stroke="#5A4A3040" stroke-width="1"/>
<line x1="257" y1="523" x2="279" y2="523" stroke="#5A4A3040" stroke-width="1"/>

<!-- ===== BUTTONS ===== -->
<!-- NEW RUN — primary gold -->
<rect x="32" y="553" width="368" height="62" rx="8" fill="#E6BF33"/>
<rect x="34" y="555" width="364" height="58" rx="7" fill="none" stroke="#F0D86050" stroke-width="1.5"/>
<text x="216" y="592" font-family="Georgia,serif" font-size="22" font-weight="bold" fill="#080604" text-anchor="middle" letter-spacing="6">NEW RUN</text>

<!-- HIGH SCORES — secondary -->
<rect x="32" y="629" width="176" height="48" rx="6" fill="#101A10"/>
<rect x="32" y="629" width="176" height="48" rx="6" fill="none" stroke="#E6BF3332" stroke-width="1"/>
<text x="120" y="657" font-family="Georgia,serif" font-size="13" fill="#A09878" text-anchor="middle">◇ HIGH SCORES</text>

<!-- HOW TO PLAY — secondary -->
<rect x="224" y="629" width="176" height="48" rx="6" fill="#101A10"/>
<rect x="224" y="629" width="176" height="48" rx="6" fill="none" stroke="#E6BF3332" stroke-width="1"/>
<text x="312" y="657" font-family="Georgia,serif" font-size="13" fill="#A09878" text-anchor="middle">? HOW TO PLAY</text>

<!-- Footer -->
<line x1="40" y1="692" x2="392" y2="692" stroke="#E6BF3818" stroke-width="1"/>
<text x="216" y="712" font-family="sans-serif" font-size="10" fill="#50403078" text-anchor="middle">BEST RUN: FLOOR 3 · ROUND 2 · 2,847 pts</text>
<text x="216" y="730" font-family="sans-serif" font-size="9" fill="#30201888" text-anchor="middle">FIVE FLOORS · ONE WHEEL · NO MERCY</text>

<!-- Bottom accent bar -->
<rect x="0" y="764" width="432" height="4" fill="#E6BF3328"/>
</svg>
