<svg xmlns="http://www.w3.org/2000/svg" width="390" height="844" viewBox="0 0 390 844">
  <defs>
    <linearGradient id="bgGrad" x1="0" y1="0" x2="0" y2="1">
      <stop offset="0%" stop-color="#0d0a14"/>
      <stop offset="100%" stop-color="#080610"/>
    </linearGradient>
    <linearGradient id="feltGrad" x1="0" y1="0" x2="0" y2="1">
      <stop offset="0%" stop-color="#0a1a0d"/>
      <stop offset="100%" stop-color="#071209"/>
    </linearGradient>
    <linearGradient id="goldBar" x1="0" y1="0" x2="1" y2="0">
      <stop offset="0%" stop-color="#b8932a"/>
      <stop offset="60%" stop-color="#e8c04a"/>
      <stop offset="100%" stop-color="#b8932a"/>
    </linearGradient>
    <linearGradient id="spinBtn" x1="0" y1="0" x2="0" y2="1">
      <stop offset="0%" stop-color="#e8c84a"/>
      <stop offset="100%" stop-color="#c8a030"/>
    </linearGradient>
    <filter id="glow">
      <feGaussianBlur stdDeviation="3" result="blur"/>
      <feMerge><feMergeNode in="blur"/><feMergeNode in="SourceGraphic"/></feMerge>
    </filter>
    <filter id="softglow">
      <feGaussianBlur stdDeviation="6" result="blur"/>
      <feMerge><feMergeNode in="blur"/><feMergeNode in="SourceGraphic"/></feMerge>
    </filter>
  </defs>

  <!-- Phone background -->
  <rect width="390" height="844" rx="40" fill="#111"/>

  <!-- Screen background -->
  <rect x="0" y="0" width="390" height="844" rx="40" fill="url(#bgGrad)"/>

  <!-- ═══ HUD BAR ═══════════════════════════════════════════ -->
  <rect x="0" y="0" width="390" height="100" fill="#0c0919" rx="0"/>
  <rect x="0" y="96" width="390" height="2" fill="#2a1f4a" opacity="0.8"/>

  <!-- Floor / Round -->
  <text x="18" y="30" font-family="Georgia, serif" font-size="13" fill="#c8b878" font-weight="bold">THE VELVET ROOM</text>
  <text x="18" y="48" font-family="Georgia, serif" font-size="11" fill="#7a6a5a">Floor 1 · Round 2</text>

  <!-- Chips -->
  <text x="372" y="30" font-family="Georgia, serif" font-size="20" fill="#e8c04a" font-weight="bold" text-anchor="end" filter="url(#glow)">♦ 340</text>
  <text x="372" y="48" font-family="Georgia, serif" font-size="11" fill="#7a6a5a" text-anchor="end">chips</text>

  <!-- Score label row -->
  <text x="18" y="68" font-family="Georgia, serif" font-size="11" fill="#9a8a7a">SCORE</text>
  <text x="190" y="68" font-family="Georgia, serif" font-size="11" fill="#c8b050" text-anchor="middle">240 / 600</text>
  <text x="372" y="68" font-family="Georgia, serif" font-size="11" fill="#9a8a7a" text-anchor="end">⟳ 3 spins</text>

  <!-- Score bar track -->
  <rect x="18" y="76" width="354" height="14" rx="7" fill="#0a0a14"/>
  <!-- Score bar fill -->
  <rect x="18" y="76" width="141" height="14" rx="7" fill="url(#goldBar)" filter="url(#glow)"/>
  <!-- Score bar shine -->
  <rect x="18" y="76" width="141" height="6" rx="3" fill="white" opacity="0.12"/>

  <!-- ═══ FELT TABLE ════════════════════════════════════════ -->
  <rect x="0" y="100" width="390" height="614" fill="url(#feltGrad)"/>

  <!-- Subtle felt texture lines -->
  <line x1="0" y1="100" x2="390" y2="100" stroke="#1a2e1a" stroke-width="1"/>

  <!-- ZERO -->
  <rect x="10" y="110" width="370" height="46" rx="4" fill="#1a5c2a"/>
  <rect x="10" y="110" width="370" height="46" rx="4" fill="none" stroke="#2a8a3a" stroke-width="1.5"/>
  <text x="195" y="139" font-family="Georgia, serif" font-size="18" fill="white" text-anchor="middle" font-weight="bold">0</text>

  <!-- Number grid: 12 rows × 3 cols -->
  <!-- Row labels helper: col widths ~118px each, x: 10, 132, 254 -->
  <!-- Rows: y from 164 down, each ~37px -->
  <rect x="10" y="164" width="118" height="37" rx="3" fill="#8a1a1a"/>
  <rect x="10" y="164" width="118" height="37" rx="3" fill="none" stroke="#cc3333" stroke-width="1"/>
  <text x="69" y="188" font-family="Georgia, serif" font-size="14" fill="white" text-anchor="middle" font-weight="bold">1</text>
  <rect x="132" y="164" width="118" height="37" rx="3" fill="#1a1a1a"/>
  <rect x="132" y="164" width="118" height="37" rx="3" fill="none" stroke="#404040" stroke-width="1"/>
  <text x="191" y="188" font-family="Georgia, serif" font-size="14" fill="white" text-anchor="middle" font-weight="bold">2</text>
  <rect x="254" y="164" width="118" height="37" rx="3" fill="#8a1a1a"/>
  <rect x="254" y="164" width="118" height="37" rx="3" fill="none" stroke="#cc3333" stroke-width="1"/>
  <text x="313" y="188" font-family="Georgia, serif" font-size="14" fill="white" text-anchor="middle" font-weight="bold">3</text>
  <rect x="10" y="205" width="118" height="37" rx="3" fill="#1a1a1a"/>
  <rect x="10" y="205" width="118" height="37" rx="3" fill="none" stroke="#404040" stroke-width="1"/>
  <text x="69" y="229" font-family="Georgia, serif" font-size="14" fill="white" text-anchor="middle" font-weight="bold">4</text>
  <rect x="132" y="205" width="118" height="37" rx="3" fill="#8a1a1a"/>
  <rect x="132" y="205" width="118" height="37" rx="3" fill="none" stroke="#cc3333" stroke-width="1"/>
  <text x="191" y="229" font-family="Georgia, serif" font-size="14" fill="white" text-anchor="middle" font-weight="bold">5</text>
  <rect x="254" y="205" width="118" height="37" rx="3" fill="#1a1a1a"/>
  <rect x="254" y="205" width="118" height="37" rx="3" fill="none" stroke="#404040" stroke-width="1"/>
  <text x="313" y="229" font-family="Georgia, serif" font-size="14" fill="white" text-anchor="middle" font-weight="bold">6</text>
  <rect x="10" y="246" width="118" height="37" rx="3" fill="#8a1a1a"/>
  <rect x="10" y="246" width="118" height="37" rx="3" fill="none" stroke="#cc3333" stroke-width="1"/>
  <text x="69" y="270" font-family="Georgia, serif" font-size="14" fill="white" text-anchor="middle" font-weight="bold">7</text>
  <rect x="132" y="246" width="118" height="37" rx="3" fill="#1a1a1a"/>
  <rect x="132" y="246" width="118" height="37" rx="3" fill="none" stroke="#404040" stroke-width="1"/>
  <text x="191" y="270" font-family="Georgia, serif" font-size="14" fill="white" text-anchor="middle" font-weight="bold">8</text>
  <rect x="254" y="246" width="118" height="37" rx="3" fill="#8a1a1a"/>
  <rect x="254" y="246" width="118" height="37" rx="3" fill="none" stroke="#cc3333" stroke-width="1"/>
  <text x="313" y="270" font-family="Georgia, serif" font-size="14" fill="white" text-anchor="middle" font-weight="bold">9</text>
  <rect x="10" y="287" width="118" height="37" rx="3" fill="#1a1a1a"/>
  <rect x="10" y="287" width="118" height="37" rx="3" fill="none" stroke="#404040" stroke-width="1"/>
  <text x="69" y="311" font-family="Georgia, serif" font-size="14" fill="white" text-anchor="middle" font-weight="bold">10</text>
  <rect x="132" y="287" width="118" height="37" rx="3" fill="#1a1a1a"/>
  <rect x="132" y="287" width="118" height="37" rx="3" fill="none" stroke="#404040" stroke-width="1"/>
  <text x="191" y="311" font-family="Georgia, serif" font-size="14" fill="white" text-anchor="middle" font-weight="bold">11</text>
  <rect x="254" y="287" width="118" height="37" rx="3" fill="#8a1a1a"/>
  <rect x="254" y="287" width="118" height="37" rx="3" fill="none" stroke="#cc3333" stroke-width="1"/>
  <text x="313" y="311" font-family="Georgia, serif" font-size="14" fill="white" text-anchor="middle" font-weight="bold">12</text>
  <rect x="10" y="328" width="118" height="37" rx="3" fill="#1a1a1a"/>
  <rect x="10" y="328" width="118" height="37" rx="3" fill="none" stroke="#404040" stroke-width="1"/>
  <text x="69" y="352" font-family="Georgia, serif" font-size="14" fill="white" text-anchor="middle" font-weight="bold">13</text>
  <rect x="132" y="328" width="118" height="37" rx="3" fill="#8a1a1a"/>
  <rect x="132" y="328" width="118" height="37" rx="3" fill="none" stroke="#cc3333" stroke-width="1"/>
  <text x="191" y="352" font-family="Georgia, serif" font-size="14" fill="white" text-anchor="middle" font-weight="bold">14</text>
  <rect x="254" y="328" width="118" height="37" rx="3" fill="#1a1a1a"/>
  <rect x="254" y="328" width="118" height="37" rx="3" fill="none" stroke="#404040" stroke-width="1"/>
  <text x="313" y="352" font-family="Georgia, serif" font-size="14" fill="white" text-anchor="middle" font-weight="bold">15</text>
  <rect x="10" y="369" width="118" height="37" rx="3" fill="#8a1a1a"/>
  <rect x="10" y="369" width="118" height="37" rx="3" fill="none" stroke="#cc3333" stroke-width="1"/>
  <text x="69" y="393" font-family="Georgia, serif" font-size="14" fill="white" text-anchor="middle" font-weight="bold">16</text>
  <rect x="132" y="369" width="118" height="37" rx="3" fill="#1a1a1a"/>
  <rect x="132" y="369" width="118" height="37" rx="3" fill="none" stroke="#404040" stroke-width="1"/>
  <text x="191" y="393" font-family="Georgia, serif" font-size="14" fill="white" text-anchor="middle" font-weight="bold">17</text>
  <rect x="254" y="369" width="118" height="37" rx="3" fill="#8a1a1a"/>
  <rect x="254" y="369" width="118" height="37" rx="3" fill="none" stroke="#cc3333" stroke-width="1"/>
  <text x="313" y="393" font-family="Georgia, serif" font-size="14" fill="white" text-anchor="middle" font-weight="bold">18</text>
  <rect x="10" y="410" width="118" height="37" rx="3" fill="#8a1a1a"/>
  <rect x="10" y="410" width="118" height="37" rx="3" fill="none" stroke="#cc3333" stroke-width="1"/>
  <text x="69" y="434" font-family="Georgia, serif" font-size="14" fill="white" text-anchor="middle" font-weight="bold">19</text>
  <rect x="132" y="410" width="118" height="37" rx="3" fill="#1a1a1a"/>
  <rect x="132" y="410" width="118" height="37" rx="3" fill="none" stroke="#404040" stroke-width="1"/>
  <text x="191" y="434" font-family="Georgia, serif" font-size="14" fill="white" text-anchor="middle" font-weight="bold">20</text>
  <rect x="254" y="410" width="118" height="37" rx="3" fill="#8a1a1a"/>
  <rect x="254" y="410" width="118" height="37" rx="3" fill="none" stroke="#cc3333" stroke-width="1"/>
  <text x="313" y="434" font-family="Georgia, serif" font-size="14" fill="white" text-anchor="middle" font-weight="bold">21</text>
  <rect x="10" y="451" width="118" height="37" rx="3" fill="#1a1a1a"/>
  <rect x="10" y="451" width="118" height="37" rx="3" fill="none" stroke="#404040" stroke-width="1"/>
  <text x="69" y="475" font-family="Georgia, serif" font-size="14" fill="white" text-anchor="middle" font-weight="bold">22</text>
  <rect x="132" y="451" width="118" height="37" rx="3" fill="#8a1a1a"/>
  <rect x="132" y="451" width="118" height="37" rx="3" fill="none" stroke="#cc3333" stroke-width="1"/>
  <text x="191" y="475" font-family="Georgia, serif" font-size="14" fill="white" text-anchor="middle" font-weight="bold">23</text>
  <rect x="254" y="451" width="118" height="37" rx="3" fill="#1a1a1a"/>
  <rect x="254" y="451" width="118" height="37" rx="3" fill="none" stroke="#404040" stroke-width="1"/>
  <text x="313" y="475" font-family="Georgia, serif" font-size="14" fill="white" text-anchor="middle" font-weight="bold">24</text>
  <rect x="10" y="492" width="118" height="37" rx="3" fill="#8a1a1a"/>
  <rect x="10" y="492" width="118" height="37" rx="3" fill="none" stroke="#cc3333" stroke-width="1"/>
  <text x="69" y="516" font-family="Georgia, serif" font-size="14" fill="white" text-anchor="middle" font-weight="bold">25</text>
  <rect x="132" y="492" width="118" height="37" rx="3" fill="#1a1a1a"/>
  <rect x="132" y="492" width="118" height="37" rx="3" fill="none" stroke="#404040" stroke-width="1"/>
  <text x="191" y="516" font-family="Georgia, serif" font-size="14" fill="white" text-anchor="middle" font-weight="bold">26</text>
  <rect x="254" y="492" width="118" height="37" rx="3" fill="#8a1a1a"/>
  <rect x="254" y="492" width="118" height="37" rx="3" fill="none" stroke="#cc3333" stroke-width="1"/>
  <text x="313" y="516" font-family="Georgia, serif" font-size="14" fill="white" text-anchor="middle" font-weight="bold">27</text>
  <rect x="10" y="533" width="118" height="37" rx="3" fill="#1a1a1a"/>
  <rect x="10" y="533" width="118" height="37" rx="3" fill="none" stroke="#404040" stroke-width="1"/>
  <text x="69" y="557" font-family="Georgia, serif" font-size="14" fill="white" text-anchor="middle" font-weight="bold">28</text>
  <rect x="132" y="533" width="118" height="37" rx="3" fill="#1a1a1a"/>
  <rect x="132" y="533" width="118" height="37" rx="3" fill="none" stroke="#404040" stroke-width="1"/>
  <text x="191" y="557" font-family="Georgia, serif" font-size="14" fill="white" text-anchor="middle" font-weight="bold">29</text>
  <rect x="254" y="533" width="118" height="37" rx="3" fill="#8a1a1a"/>
  <rect x="254" y="533" width="118" height="37" rx="3" fill="none" stroke="#cc3333" stroke-width="1"/>
  <text x="313" y="557" font-family="Georgia, serif" font-size="14" fill="white" text-anchor="middle" font-weight="bold">30</text>
  <rect x="10" y="574" width="118" height="37" rx="3" fill="#1a1a1a"/>
  <rect x="10" y="574" width="118" height="37" rx="3" fill="none" stroke="#404040" stroke-width="1"/>
  <text x="69" y="598" font-family="Georgia, serif" font-size="14" fill="white" text-anchor="middle" font-weight="bold">31</text>
  <rect x="132" y="574" width="118" height="37" rx="3" fill="#8a1a1a"/>
  <rect x="132" y="574" width="118" height="37" rx="3" fill="none" stroke="#cc3333" stroke-width="1"/>
  <text x="191" y="598" font-family="Georgia, serif" font-size="14" fill="white" text-anchor="middle" font-weight="bold">32</text>
  <rect x="254" y="574" width="118" height="37" rx="3" fill="#1a1a1a"/>
  <rect x="254" y="574" width="118" height="37" rx="3" fill="none" stroke="#404040" stroke-width="1"/>
  <text x="313" y="598" font-family="Georgia, serif" font-size="14" fill="white" text-anchor="middle" font-weight="bold">33</text>
  <rect x="10" y="615" width="118" height="37" rx="3" fill="#8a1a1a"/>
  <rect x="10" y="615" width="118" height="37" rx="3" fill="none" stroke="#cc3333" stroke-width="1"/>
  <text x="69" y="639" font-family="Georgia, serif" font-size="14" fill="white" text-anchor="middle" font-weight="bold">34</text>
  <rect x="132" y="615" width="118" height="37" rx="3" fill="#1a1a1a"/>
  <rect x="132" y="615" width="118" height="37" rx="3" fill="none" stroke="#404040" stroke-width="1"/>
  <text x="191" y="639" font-family="Georgia, serif" font-size="14" fill="white" text-anchor="middle" font-weight="bold">35</text>
  <rect x="254" y="615" width="118" height="37" rx="3" fill="#8a1a1a"/>
  <rect x="254" y="615" width="118" height="37" rx="3" fill="none" stroke="#cc3333" stroke-width="1"/>
  <text x="313" y="639" font-family="Georgia, serif" font-size="14" fill="white" text-anchor="middle" font-weight="bold">36</text>
  <rect x="10" y="658" width="120" height="40" rx="3" fill="#0d1f0d"/>
  <rect x="10" y="658" width="120" height="40" rx="3" fill="none" stroke="#2a4a2a" stroke-width="1.5"/>
  <text x="70" y="683" font-family="Georgia, serif" font-size="13" fill="#b8d090" text-anchor="middle">1st 12</text>
  <rect x="134" y="658" width="120" height="40" rx="3" fill="#0d1f0d"/>
  <rect x="134" y="658" width="120" height="40" rx="3" fill="none" stroke="#2a4a2a" stroke-width="1.5"/>
  <text x="194" y="683" font-family="Georgia, serif" font-size="13" fill="#b8d090" text-anchor="middle">2nd 12</text>
  <rect x="258" y="658" width="120" height="40" rx="3" fill="#0d1f0d"/>
  <rect x="258" y="658" width="120" height="40" rx="3" fill="none" stroke="#2a4a2a" stroke-width="1.5"/>
  <text x="318" y="683" font-family="Georgia, serif" font-size="13" fill="#b8d090" text-anchor="middle">3rd 12</text>
  <rect x="10" y="702" width="120" height="40" rx="3" fill="#0d1f0d"/>
  <rect x="10" y="702" width="120" height="40" rx="3" fill="none" stroke="#2a4a2a" stroke-width="1.5"/>
  <text x="70" y="727" font-family="Georgia, serif" font-size="13" fill="#b8d090" text-anchor="middle">2 to 1</text>
  <rect x="134" y="702" width="120" height="40" rx="3" fill="#0d1f0d"/>
  <rect x="134" y="702" width="120" height="40" rx="3" fill="none" stroke="#2a4a2a" stroke-width="1.5"/>
  <text x="194" y="727" font-family="Georgia, serif" font-size="13" fill="#b8d090" text-anchor="middle">2 to 1</text>
  <rect x="258" y="702" width="120" height="40" rx="3" fill="#0d1f0d"/>
  <rect x="258" y="702" width="120" height="40" rx="3" fill="none" stroke="#2a4a2a" stroke-width="1.5"/>
  <text x="318" y="727" font-family="Georgia, serif" font-size="13" fill="#b8d090" text-anchor="middle">2 to 1</text>
  <rect x="10" y="746" width="58" height="44" rx="3" fill="#0d1f0d"/>
  <rect x="10" y="746" width="58" height="44" rx="3" fill="none" stroke="#2a4a2a" stroke-width="1.5"/>
  <text x="39" y="773" font-family="Georgia, serif" font-size="11" fill="white" text-anchor="middle" font-weight="bold">1-18</text>
  <rect x="72" y="746" width="58" height="44" rx="3" fill="#0d1f0d"/>
  <rect x="72" y="746" width="58" height="44" rx="3" fill="none" stroke="#2a4a2a" stroke-width="1.5"/>
  <text x="101" y="773" font-family="Georgia, serif" font-size="11" fill="white" text-anchor="middle" font-weight="bold">EVEN</text>
  <rect x="134" y="746" width="58" height="44" rx="3" fill="#6a1414"/>
  <rect x="134" y="746" width="58" height="44" rx="3" fill="none" stroke="#aa2222" stroke-width="1.5"/>
  <text x="163" y="773" font-family="Georgia, serif" font-size="11" fill="white" text-anchor="middle" font-weight="bold">RED</text>
  <rect x="196" y="746" width="58" height="44" rx="3" fill="#141414"/>
  <rect x="196" y="746" width="58" height="44" rx="3" fill="none" stroke="#444444" stroke-width="1.5"/>
  <text x="225" y="773" font-family="Georgia, serif" font-size="11" fill="white" text-anchor="middle" font-weight="bold">BLK</text>
  <rect x="258" y="746" width="58" height="44" rx="3" fill="#0d1f0d"/>
  <rect x="258" y="746" width="58" height="44" rx="3" fill="none" stroke="#2a4a2a" stroke-width="1.5"/>
  <text x="287" y="773" font-family="Georgia, serif" font-size="11" fill="white" text-anchor="middle" font-weight="bold">ODD</text>
  <rect x="320" y="746" width="58" height="44" rx="3" fill="#0d1f0d"/>
  <rect x="320" y="746" width="58" height="44" rx="3" fill="none" stroke="#2a4a2a" stroke-width="1.5"/>
  <text x="349" y="773" font-family="Georgia, serif" font-size="11" fill="white" text-anchor="middle" font-weight="bold">19-36</text>

  <!-- Active bet chip on 19 -->
  <circle cx="313" cy="428" r="14" fill="#3a6aaa" filter="url(#glow)"/>
  <circle cx="313" cy="428" r="14" fill="none" stroke="#6a9add" stroke-width="2"/>
  <text x="313" y="432" font-family="Georgia, serif" font-size="10" fill="white" text-anchor="middle" font-weight="bold">25</text>
  <!-- Highlight border on that cell -->
  <rect x="254" y="410" width="118" height="37" rx="3" fill="none" stroke="#e8c04a" stroke-width="2.5"/>

  <!-- ═══ BOTTOM ACTION BAR ════════════════════════════════ -->
  <rect x="0" y="714" width="390" height="130" fill="#080c08"/>
  <line x1="0" y1="714" x2="390" y2="714" stroke="#1a2e1a" stroke-width="1.5"/>

  <!-- Chip selector: 5 chips -->
  <!-- Chip 1: white (1) -->
  <circle cx="39" cy="742" r="22" fill="#d0c8b8"/>
  <circle cx="39" cy="742" r="22" fill="none" stroke="#f0e8d8" stroke-width="2.5"/>
  <text x="39" y="748" font-family="Georgia, serif" font-size="13" fill="#1a1a1a" text-anchor="middle" font-weight="bold">1</text>

  <!-- Chip 2: blue (5) -->
  <circle cx="97" cy="742" r="22" fill="#1a4a8a"/>
  <circle cx="97" cy="742" r="22" fill="none" stroke="#4a7acc" stroke-width="2.5"/>
  <text x="97" y="748" font-family="Georgia, serif" font-size="13" fill="white" text-anchor="middle" font-weight="bold">5</text>

  <!-- Chip 3: red (25) — SELECTED -->
  <circle cx="155" cy="740" r="26" fill="#8a1a1a" filter="url(#glow)"/>
  <circle cx="155" cy="740" r="26" fill="none" stroke="#e8c04a" stroke-width="3.5"/>
  <text x="155" y="746" font-family="Georgia, serif" font-size="14" fill="white" text-anchor="middle" font-weight="bold">25</text>

  <!-- Chip 4: purple (100) -->
  <circle cx="215" cy="742" r="22" fill="#4a1a6a"/>
  <circle cx="215" cy="742" r="22" fill="none" stroke="#8a4aaa" stroke-width="2.5"/>
  <text x="215" y="748" font-family="Georgia, serif" font-size="13" fill="white" text-anchor="middle" font-weight="bold">100</text>

  <!-- Chip 5: gold (500) -->
  <circle cx="273" cy="742" r="22" fill="#6a4a0a"/>
  <circle cx="273" cy="742" r="22" fill="none" stroke="#c8901a" stroke-width="2.5"/>
  <text x="273" y="748" font-family="Georgia, serif" font-size="13" fill="#e8c04a" text-anchor="middle" font-weight="bold">500</text>

  <!-- CLEAR button -->
  <rect x="12" y="772" width="100" height="54" rx="10" fill="#3a0a0a"/>
  <rect x="12" y="772" width="100" height="54" rx="10" fill="none" stroke="#7a2020" stroke-width="2"/>
  <text x="62" y="804" font-family="Georgia, serif" font-size="15" fill="#cc6060" text-anchor="middle" font-weight="bold">CLEAR</text>

  <!-- SPIN button — large, gold -->
  <rect x="122" y="768" width="256" height="62" rx="12" fill="url(#spinBtn)" filter="url(#softglow)"/>
  <rect x="122" y="768" width="256" height="62" rx="12" fill="none" stroke="#f0d060" stroke-width="2"/>
  <text x="250" y="806" font-family="Georgia, serif" font-size="22" fill="#1a1000" text-anchor="middle" font-weight="bold">SPIN THE WHEEL</text>

  <!-- Dealer speech bubble (top right) -->
  <rect x="240" y="112" width="138" height="36" rx="10" fill="#f5f0e4" opacity="0.93"/>
  <polygon points="240,124 228,130 240,136" fill="#f5f0e4" opacity="0.93"/>
  <text x="309" y="127" font-family="Georgia, serif" font-size="10" fill="#2a1a0a" text-anchor="middle">Place your bets.</text>
  <text x="309" y="140" font-family="Georgia, serif" font-size="10" fill="#6a5a4a" text-anchor="middle">The wheel awaits.</text>

  <!-- Corner label -->
  <text x="195" y="840" font-family="Georgia, serif" font-size="9" fill="#3a3030" text-anchor="middle">BETTING SCREEN</text>
</svg>