<svg xmlns="http://www.w3.org/2000/svg" width="390" height="844" viewBox="0 0 390 844">
  <defs>
    <radialGradient id="wheelBg" cx="50%" cy="50%">
      <stop offset="0%" stop-color="#1a0a2e"/>
      <stop offset="100%" stop-color="#080610"/>
    </radialGradient>
    <radialGradient id="wheelRim" cx="50%" cy="50%">
      <stop offset="0%" stop-color="#2a1a0a"/>
      <stop offset="100%" stop-color="#1a0a00"/>
    </radialGradient>
    <linearGradient id="hudBg" x1="0" y1="0" x2="0" y2="1">
      <stop offset="0%" stop-color="#0c0919"/>
      <stop offset="100%" stop-color="#080610"/>
    </linearGradient>
    <linearGradient id="goldBar" x1="0" y1="0" x2="1" y2="0">
      <stop offset="0%" stop-color="#b8932a"/>
      <stop offset="60%" stop-color="#e8c04a"/>
      <stop offset="100%" stop-color="#b8932a"/>
    </linearGradient>
    <linearGradient id="resultCard" x1="0" y1="0" x2="0" y2="1">
      <stop offset="0%" stop-color="#1e1428"/>
      <stop offset="100%" stop-color="#120e1e"/>
    </linearGradient>
    <filter id="glow">
      <feGaussianBlur stdDeviation="4" result="blur"/>
      <feMerge><feMergeNode in="blur"/><feMergeNode in="SourceGraphic"/></feMerge>
    </filter>
    <filter id="outerGlow">
      <feGaussianBlur stdDeviation="10" result="blur"/>
      <feMerge><feMergeNode in="blur"/><feMergeNode in="SourceGraphic"/></feMerge>
    </filter>
    <filter id="resultGlow">
      <feGaussianBlur stdDeviation="20" result="blur"/>
      <feMerge><feMergeNode in="blur"/><feMergeNode in="SourceGraphic"/></feMerge>
    </filter>
  </defs>

  <!-- Background -->
  <rect width="390" height="844" rx="40" fill="#05040e"/>
  <rect x="0" y="0" width="390" height="844" rx="40" fill="url(#wheelBg)"/>

  <!-- ═══ HUD ═══════════════════════════════════════════════ -->
  <rect x="0" y="0" width="390" height="98" fill="url(#hudBg)" rx="0"/>
  <rect x="0" y="96" width="390" height="1.5" fill="#2a1f4a" opacity="0.6"/>

  <text x="18" y="28" font-family="Georgia, serif" font-size="13" fill="#c8b878" font-weight="bold">THE VELVET ROOM</text>
  <text x="18" y="46" font-family="Georgia, serif" font-size="11" fill="#7a6a5a">Floor 1 · Round 2</text>
  <text x="372" y="28" font-family="Georgia, serif" font-size="20" fill="#e8c04a" font-weight="bold" text-anchor="end" filter="url(#glow)">♦ 340</text>
  <text x="372" y="46" font-family="Georgia, serif" font-size="11" fill="#7a6a5a" text-anchor="end">chips</text>

  <text x="18" y="66" font-family="Georgia, serif" font-size="11" fill="#9a8a7a">SCORE</text>
  <text x="190" y="66" font-family="Georgia, serif" font-size="11" fill="#c8b050" text-anchor="middle">240 / 600</text>
  <text x="372" y="66" font-family="Georgia, serif" font-size="11" fill="#9a8a7a" text-anchor="end">⟳ 3 spins</text>

  <rect x="18" y="74" width="354" height="14" rx="7" fill="#0a0a14"/>
  <rect x="18" y="74" width="141" height="14" rx="7" fill="url(#goldBar)" filter="url(#glow)"/>
  <rect x="18" y="74" width="141" height="6" rx="3" fill="white" opacity="0.12"/>

  <!-- ═══ WHEEL ═══════════════════════════════════════════════ -->
  <path d="M 195.0,252.0 A 168,168 0 0,1 223.4,254.4 L 202.4,376.6 A 44,44 0 0,0 195.0,376.0 Z" fill="#1a6a2a" stroke="#2aaa3a" stroke-width="0.8"/>
  <text x="206.7" y="282.5" font-family="Georgia, serif" font-size="9.5" fill="white" text-anchor="middle" dominant-baseline="middle" transform="rotate(4.9,206.7,282.5)" font-weight="bold" opacity="0.95">0</text>
  <path d="M 223.4,254.4 A 168,168 0 0,1 251.0,261.6 L 209.7,378.5 A 44,44 0 0,0 202.4,376.6 Z" fill="#7a1414" stroke="#cc2828" stroke-width="0.8"/>
  <text x="229.8" y="286.5" font-family="Georgia, serif" font-size="9.5" fill="white" text-anchor="middle" dominant-baseline="middle" transform="rotate(14.6,229.8,286.5)" font-weight="bold" opacity="0.95">32</text>
  <path d="M 251.0,261.6 A 168,168 0 0,1 276.9,273.3 L 216.5,381.6 A 44,44 0 0,0 209.7,378.5 Z" fill="#141414" stroke="#383838" stroke-width="0.8"/>
  <text x="251.8" y="294.3" font-family="Georgia, serif" font-size="9.5" fill="white" text-anchor="middle" dominant-baseline="middle" transform="rotate(24.3,251.8,294.3)" font-weight="bold" opacity="0.95">15</text>
  <path d="M 276.9,273.3 A 168,168 0 0,1 300.5,289.3 L 222.6,385.8 A 44,44 0 0,0 216.5,381.6 Z" fill="#7a1414" stroke="#cc2828" stroke-width="0.8"/>
  <text x="272.3" y="305.7" font-family="Georgia, serif" font-size="9.5" fill="white" text-anchor="middle" dominant-baseline="middle" transform="rotate(34.1,272.3,305.7)" font-weight="bold" opacity="0.95">19</text>
  <path d="M 300.5,289.3 A 168,168 0 0,1 321.1,309.0 L 228.0,390.9 A 44,44 0 0,0 222.6,385.8 Z" fill="#141414" stroke="#383838" stroke-width="0.8"/>
  <text x="290.5" y="320.4" font-family="Georgia, serif" font-size="9.5" fill="white" text-anchor="middle" dominant-baseline="middle" transform="rotate(43.8,290.5,320.4)" font-weight="bold" opacity="0.95">4</text>
  <path d="M 321.1,309.0 A 168,168 0 0,1 338.1,331.9 L 232.5,396.9 A 44,44 0 0,0 228.0,390.9 Z" fill="#7a1414" stroke="#cc2828" stroke-width="0.8"/>
  <text x="306.0" y="337.9" font-family="Georgia, serif" font-size="9.5" fill="white" text-anchor="middle" dominant-baseline="middle" transform="rotate(53.5,306.0,337.9)" font-weight="bold" opacity="0.95">21</text>
  <path d="M 338.1,331.9 A 168,168 0 0,1 350.9,357.4 L 235.8,403.6 A 44,44 0 0,0 232.5,396.9 Z" fill="#141414" stroke="#383838" stroke-width="0.8"/>
  <text x="318.2" y="357.9" font-family="Georgia, serif" font-size="9.5" fill="white" text-anchor="middle" dominant-baseline="middle" transform="rotate(63.2,318.2,357.9)" font-weight="bold" opacity="0.95">2</text>
  <path d="M 350.9,357.4 A 168,168 0 0,1 359.2,384.6 L 238.0,410.7 A 44,44 0 0,0 235.8,403.6 Z" fill="#7a1414" stroke="#cc2828" stroke-width="0.8"/>
  <text x="327.0" y="379.6" font-family="Georgia, serif" font-size="9.5" fill="white" text-anchor="middle" dominant-baseline="middle" transform="rotate(73.0,327.0,379.6)" font-weight="bold" opacity="0.95">25</text>
  <path d="M 359.2,384.6 A 168,168 0 0,1 362.8,412.9 L 239.0,418.1 A 44,44 0 0,0 238.0,410.7 Z" fill="#141414" stroke="#383838" stroke-width="0.8"/>
  <text x="331.9" y="402.5" font-family="Georgia, serif" font-size="9.5" fill="white" text-anchor="middle" dominant-baseline="middle" transform="rotate(82.7,331.9,402.5)" font-weight="bold" opacity="0.95">17</text>
  <path d="M 362.8,412.9 A 168,168 0 0,1 361.6,441.3 L 238.6,425.6 A 44,44 0 0,0 239.0,418.1 Z" fill="#7a1414" stroke="#cc2828" stroke-width="0.8"/>
  <text x="332.9" y="425.9" font-family="Georgia, serif" font-size="9.5" fill="white" text-anchor="middle" dominant-baseline="middle" transform="rotate(92.4,332.9,425.9)" font-weight="bold" opacity="0.95">34</text>
  <path d="M 361.6,441.3 A 168,168 0 0,1 355.6,469.2 L 237.1,432.9 A 44,44 0 0,0 238.6,425.6 Z" fill="#141414" stroke="#383838" stroke-width="0.8"/>
  <text x="329.9" y="449.1" font-family="Georgia, serif" font-size="9.5" fill="white" text-anchor="middle" dominant-baseline="middle" transform="rotate(102.2,329.9,449.1)" font-weight="bold" opacity="0.95">6</text>
  <path d="M 355.6,469.2 A 168,168 0 0,1 345.0,495.6 L 234.3,439.8 A 44,44 0 0,0 237.1,432.9 Z" fill="#7a1414" stroke="#cc2828" stroke-width="0.8"/>
  <text x="323.0" y="471.5" font-family="Georgia, serif" font-size="9.5" fill="white" text-anchor="middle" dominant-baseline="middle" transform="rotate(111.9,323.0,471.5)" font-weight="bold" opacity="0.95">27</text>
  <path d="M 345.0,495.6 A 168,168 0 0,1 330.1,519.9 L 230.4,446.2 A 44,44 0 0,0 234.3,439.8 Z" fill="#141414" stroke="#383838" stroke-width="0.8"/>
  <text x="312.5" y="492.4" font-family="Georgia, serif" font-size="9.5" fill="white" text-anchor="middle" dominant-baseline="middle" transform="rotate(121.6,312.5,492.4)" font-weight="bold" opacity="0.95">13</text>
  <path d="M 330.1,519.9 A 168,168 0 0,1 311.2,541.3 L 225.4,451.8 A 44,44 0 0,0 230.4,446.2 Z" fill="#7a1414" stroke="#cc2828" stroke-width="0.8"/>
  <text x="298.6" y="511.2" font-family="Georgia, serif" font-size="9.5" fill="white" text-anchor="middle" dominant-baseline="middle" transform="rotate(131.4,298.6,511.2)" font-weight="bold" opacity="0.95">36</text>
  <path d="M 311.2,541.3 A 168,168 0 0,1 289.1,559.2 L 219.6,456.5 A 44,44 0 0,0 225.4,451.8 Z" fill="#141414" stroke="#383838" stroke-width="0.8"/>
  <text x="281.7" y="527.4" font-family="Georgia, serif" font-size="9.5" fill="white" text-anchor="middle" dominant-baseline="middle" transform="rotate(141.1,281.7,527.4)" font-weight="bold" opacity="0.95">11</text>
  <path d="M 289.1,559.2 A 168,168 0 0,1 264.2,573.1 L 213.1,460.1 A 44,44 0 0,0 219.6,456.5 Z" fill="#7a1414" stroke="#cc2828" stroke-width="0.8"/>
  <text x="262.3" y="540.5" font-family="Georgia, serif" font-size="9.5" fill="white" text-anchor="middle" dominant-baseline="middle" transform="rotate(150.8,262.3,540.5)" font-weight="bold" opacity="0.95">30</text>
  <path d="M 264.2,573.1 A 168,168 0 0,1 237.3,582.6 L 206.1,462.6 A 44,44 0 0,0 213.1,460.1 Z" fill="#141414" stroke="#383838" stroke-width="0.8"/>
  <text x="241.0" y="550.1" font-family="Georgia, serif" font-size="9.5" fill="white" text-anchor="middle" dominant-baseline="middle" transform="rotate(160.5,241.0,550.1)" font-weight="bold" opacity="0.95">8</text>
  <path d="M 237.3,582.6 A 168,168 0 0,1 209.2,587.4 L 198.7,463.8 A 44,44 0 0,0 206.1,462.6 Z" fill="#7a1414" stroke="#cc2828" stroke-width="0.8"/>
  <text x="218.3" y="556.0" font-family="Georgia, serif" font-size="9.5" fill="white" text-anchor="middle" dominant-baseline="middle" transform="rotate(170.3,218.3,556.0)" font-weight="bold" opacity="0.95">23</text>
  <path d="M 209.2,587.4 A 168,168 0 0,1 180.8,587.4 L 191.3,463.8 A 44,44 0 0,0 198.7,463.8 Z" fill="#141414" stroke="#383838" stroke-width="0.8"/>
  <text x="195.0" y="558.0" font-family="Georgia, serif" font-size="9.5" fill="white" text-anchor="middle" dominant-baseline="middle" transform="rotate(180.0,195.0,558.0)" font-weight="bold" opacity="0.95">10</text>
  <path d="M 180.8,587.4 A 168,168 0 0,1 152.7,582.6 L 183.9,462.6 A 44,44 0 0,0 191.3,463.8 Z" fill="#7a1414" stroke="#cc2828" stroke-width="0.8"/>
  <text x="171.7" y="556.0" font-family="Georgia, serif" font-size="9.5" fill="white" text-anchor="middle" dominant-baseline="middle" transform="rotate(189.7,171.7,556.0)" font-weight="bold" opacity="0.95">5</text>
  <path d="M 152.7,582.6 A 168,168 0 0,1 125.8,573.1 L 176.9,460.1 A 44,44 0 0,0 183.9,462.6 Z" fill="#141414" stroke="#383838" stroke-width="0.8"/>
  <text x="149.0" y="550.1" font-family="Georgia, serif" font-size="9.5" fill="white" text-anchor="middle" dominant-baseline="middle" transform="rotate(199.5,149.0,550.1)" font-weight="bold" opacity="0.95">24</text>
  <path d="M 125.8,573.1 A 168,168 0 0,1 100.9,559.2 L 170.4,456.5 A 44,44 0 0,0 176.9,460.1 Z" fill="#7a1414" stroke="#cc2828" stroke-width="0.8"/>
  <text x="127.7" y="540.5" font-family="Georgia, serif" font-size="9.5" fill="white" text-anchor="middle" dominant-baseline="middle" transform="rotate(209.2,127.7,540.5)" font-weight="bold" opacity="0.95">16</text>
  <path d="M 100.9,559.2 A 168,168 0 0,1 78.8,541.3 L 164.6,451.8 A 44,44 0 0,0 170.4,456.5 Z" fill="#141414" stroke="#383838" stroke-width="0.8"/>
  <text x="108.3" y="527.4" font-family="Georgia, serif" font-size="9.5" fill="white" text-anchor="middle" dominant-baseline="middle" transform="rotate(218.9,108.3,527.4)" font-weight="bold" opacity="0.95">33</text>
  <path d="M 78.8,541.3 A 168,168 0 0,1 59.9,519.9 L 159.6,446.2 A 44,44 0 0,0 164.6,451.8 Z" fill="#7a1414" stroke="#cc2828" stroke-width="0.8"/>
  <text x="91.4" y="511.2" font-family="Georgia, serif" font-size="9.5" fill="white" text-anchor="middle" dominant-baseline="middle" transform="rotate(228.6,91.4,511.2)" font-weight="bold" opacity="0.95">1</text>
  <path d="M 59.9,519.9 A 168,168 0 0,1 45.0,495.6 L 155.7,439.8 A 44,44 0 0,0 159.6,446.2 Z" fill="#141414" stroke="#383838" stroke-width="0.8"/>
  <text x="77.5" y="492.4" font-family="Georgia, serif" font-size="9.5" fill="white" text-anchor="middle" dominant-baseline="middle" transform="rotate(238.4,77.5,492.4)" font-weight="bold" opacity="0.95">20</text>
  <path d="M 45.0,495.6 A 168,168 0 0,1 34.4,469.2 L 152.9,432.9 A 44,44 0 0,0 155.7,439.8 Z" fill="#7a1414" stroke="#cc2828" stroke-width="0.8"/>
  <text x="67.0" y="471.5" font-family="Georgia, serif" font-size="9.5" fill="white" text-anchor="middle" dominant-baseline="middle" transform="rotate(248.1,67.0,471.5)" font-weight="bold" opacity="0.95">14</text>
  <path d="M 34.4,469.2 A 168,168 0 0,1 28.4,441.3 L 151.4,425.6 A 44,44 0 0,0 152.9,432.9 Z" fill="#141414" stroke="#383838" stroke-width="0.8"/>
  <text x="60.1" y="449.1" font-family="Georgia, serif" font-size="9.5" fill="white" text-anchor="middle" dominant-baseline="middle" transform="rotate(257.8,60.1,449.1)" font-weight="bold" opacity="0.95">31</text>
  <path d="M 28.4,441.3 A 168,168 0 0,1 27.2,412.9 L 151.0,418.1 A 44,44 0 0,0 151.4,425.6 Z" fill="#7a1414" stroke="#cc2828" stroke-width="0.8"/>
  <text x="57.1" y="425.9" font-family="Georgia, serif" font-size="9.5" fill="white" text-anchor="middle" dominant-baseline="middle" transform="rotate(267.6,57.1,425.9)" font-weight="bold" opacity="0.95">9</text>
  <path d="M 27.2,412.9 A 168,168 0 0,1 30.8,384.6 L 152.0,410.7 A 44,44 0 0,0 151.0,418.1 Z" fill="#141414" stroke="#383838" stroke-width="0.8"/>
  <text x="58.1" y="402.5" font-family="Georgia, serif" font-size="9.5" fill="white" text-anchor="middle" dominant-baseline="middle" transform="rotate(277.3,58.1,402.5)" font-weight="bold" opacity="0.95">22</text>
  <path d="M 30.8,384.6 A 168,168 0 0,1 39.1,357.4 L 154.2,403.6 A 44,44 0 0,0 152.0,410.7 Z" fill="#7a1414" stroke="#cc2828" stroke-width="0.8"/>
  <text x="63.0" y="379.6" font-family="Georgia, serif" font-size="9.5" fill="white" text-anchor="middle" dominant-baseline="middle" transform="rotate(287.0,63.0,379.6)" font-weight="bold" opacity="0.95">18</text>
  <path d="M 39.1,357.4 A 168,168 0 0,1 51.9,331.9 L 157.5,396.9 A 44,44 0 0,0 154.2,403.6 Z" fill="#141414" stroke="#383838" stroke-width="0.8"/>
  <text x="71.8" y="357.9" font-family="Georgia, serif" font-size="9.5" fill="white" text-anchor="middle" dominant-baseline="middle" transform="rotate(296.8,71.8,357.9)" font-weight="bold" opacity="0.95">29</text>
  <path d="M 51.9,331.9 A 168,168 0 0,1 68.9,309.0 L 162.0,390.9 A 44,44 0 0,0 157.5,396.9 Z" fill="#7a1414" stroke="#cc2828" stroke-width="0.8"/>
  <text x="84.0" y="337.9" font-family="Georgia, serif" font-size="9.5" fill="white" text-anchor="middle" dominant-baseline="middle" transform="rotate(306.5,84.0,337.9)" font-weight="bold" opacity="0.95">7</text>
  <path d="M 68.9,309.0 A 168,168 0 0,1 89.5,289.3 L 167.4,385.8 A 44,44 0 0,0 162.0,390.9 Z" fill="#141414" stroke="#383838" stroke-width="0.8"/>
  <text x="99.5" y="320.4" font-family="Georgia, serif" font-size="9.5" fill="white" text-anchor="middle" dominant-baseline="middle" transform="rotate(316.2,99.5,320.4)" font-weight="bold" opacity="0.95">28</text>
  <path d="M 89.5,289.3 A 168,168 0 0,1 113.1,273.3 L 173.5,381.6 A 44,44 0 0,0 167.4,385.8 Z" fill="#7a1414" stroke="#cc2828" stroke-width="0.8"/>
  <text x="117.7" y="305.7" font-family="Georgia, serif" font-size="9.5" fill="white" text-anchor="middle" dominant-baseline="middle" transform="rotate(325.9,117.7,305.7)" font-weight="bold" opacity="0.95">12</text>
  <path d="M 113.1,273.3 A 168,168 0 0,1 139.0,261.6 L 180.3,378.5 A 44,44 0 0,0 173.5,381.6 Z" fill="#141414" stroke="#383838" stroke-width="0.8"/>
  <text x="138.2" y="294.3" font-family="Georgia, serif" font-size="9.5" fill="white" text-anchor="middle" dominant-baseline="middle" transform="rotate(335.7,138.2,294.3)" font-weight="bold" opacity="0.95">35</text>
  <path d="M 139.0,261.6 A 168,168 0 0,1 166.6,254.4 L 187.6,376.6 A 44,44 0 0,0 180.3,378.5 Z" fill="#7a1414" stroke="#cc2828" stroke-width="0.8"/>
  <text x="160.2" y="286.5" font-family="Georgia, serif" font-size="9.5" fill="white" text-anchor="middle" dominant-baseline="middle" transform="rotate(345.4,160.2,286.5)" font-weight="bold" opacity="0.95">3</text>
  <path d="M 166.6,254.4 A 168,168 0 0,1 195.0,252.0 L 195.0,376.0 A 44,44 0 0,0 187.6,376.6 Z" fill="#141414" stroke="#383838" stroke-width="0.8"/>
  <text x="183.3" y="282.5" font-family="Georgia, serif" font-size="9.5" fill="white" text-anchor="middle" dominant-baseline="middle" transform="rotate(355.1,183.3,282.5)" font-weight="bold" opacity="0.95">26</text>

  <!-- Wheel outer rim rings -->
  <circle cx="195" cy="420" r="174" fill="none" stroke="#c8901a" stroke-width="5" opacity="0.9" filter="url(#glow)"/>
  <circle cx="195" cy="420" r="178" fill="none" stroke="#8a6010" stroke-width="2" opacity="0.5"/>
  <circle cx="195" cy="420" r="182" fill="none" stroke="#6a4808" stroke-width="1.5" opacity="0.3"/>

  <!-- Track ring (ball path) -->
  <circle cx="195" cy="420" r="170" fill="none" stroke="#3a2808" stroke-width="8" opacity="0.7"/>

  <!-- Hub -->
  <circle cx="195" cy="420" r="44" fill="#1a0e06"/>
  <circle cx="195" cy="420" r="44" fill="none" stroke="#c8901a" stroke-width="3" filter="url(#glow)"/>
  <circle cx="195" cy="420" r="14" fill="#c8901a" opacity="0.9"/>
  <circle cx="195" cy="420" r="8" fill="#1a0e06"/>
  <circle cx="195" cy="420" r="4" fill="#e8c04a"/>

  <!-- Diamond markers at cardinal points -->
  <polygon points="366.0,415.0 371.0,420.0 366.0,425.0 361.0,420.0" fill="#e8c04a" filter="url(#glow)"/>
  <polygon points="195.0,586.0 200.0,591.0 195.0,596.0 190.0,591.0" fill="#e8c04a" filter="url(#glow)"/>
  <polygon points="24.0,415.0 29.0,420.0 24.0,425.0 19.0,420.0" fill="#e8c04a" filter="url(#glow)"/>
  <polygon points="195.0,244.0 200.0,249.0 195.0,254.0 190.0,249.0" fill="#e8c04a" filter="url(#glow)"/>

  <!-- Ball -->
  <circle cx="341.4" cy="335.5" r="7" fill="white" filter="url(#outerGlow)"/>
  <circle cx="341.4" cy="335.5" r="7" fill="none" stroke="#e0e0e0" stroke-width="1"/>
  <circle cx="339.4" cy="333.5" r="2.5" fill="white" opacity="0.7"/>

  <!-- Spin motion blur arcs (subtle) -->
  <circle cx="195" cy="420" r="169" fill="none" stroke="white" stroke-width="2" stroke-dasharray="20,60" opacity="0.12"/>

  <!-- ═══ DEALER (bottom left) ═══════════════════════════════ -->
  <!-- Dealer card -->
  <rect x="8" y="610" width="120" height="94" rx="12" fill="#0e0e1e" opacity="0.85"/>
  <rect x="8" y="610" width="120" height="94" rx="12" fill="none" stroke="#3a2a5a" stroke-width="1.5"/>

  <!-- Dealer character (simplified pixel-art style) -->
  <!-- Hat -->
  <rect x="38" y="618" width="48" height="8" rx="2" fill="#1a1030"/>
  <rect x="46" y="620" width="32" height="24" rx="2" fill="#1a1030"/>
  <!-- Hat band -->
  <rect x="46" y="638" width="32" height="5" fill="#c8901a"/>
  <!-- Head -->
  <ellipse cx="62" cy="658" rx="18" ry="18" fill="#d4a87a"/>
  <!-- Eyes -->
  <circle cx="55" cy="654" r="3" fill="#2a1a5a"/>
  <circle cx="69" cy="654" r="3" fill="#2a1a5a"/>
  <!-- Smug mouth -->
  <path d="M 55,664 Q 62,669 69,664" fill="none" stroke="#8a4a3a" stroke-width="1.5"/>
  <!-- Body -->
  <rect x="44" y="674" width="36" height="28" rx="4" fill="#1a1030"/>
  <!-- Tie -->
  <polygon points="62,675 58,680 62,698 66,680" fill="#c8901a"/>

  <!-- Speech bubble -->
  <rect x="134" y="614" width="122" height="42" rx="10" fill="#f5f0e4" opacity="0.95"/>
  <polygon points="134,628 122,634 134,640" fill="#f5f0e4" opacity="0.95"/>
  <text x="195" y="630" font-family="Georgia, serif" font-size="10" fill="#2a1a0a" text-anchor="middle">Colour me impressed.</text>
  <text x="195" y="645" font-family="Georgia, serif" font-size="10" fill="#6a5a4a" text-anchor="middle">A fine choice.</text>

  <!-- ═══ RESULT OVERLAY CARD ════════════════════════════════ -->
  <!-- Backdrop -->
  <rect x="40" y="660" width="310" height="148" rx="20" fill="#12001a" opacity="0.7"/>
  <!-- Card -->
  <rect x="50" y="666" width="290" height="136" rx="16" fill="url(#resultCard)"/>
  <rect x="50" y="666" width="290" height="136" rx="16" fill="none" stroke="#e8c04a" stroke-width="2.5" filter="url(#glow)"/>

  <!-- Number landed -->
  <circle cx="115" cy="734" r="36" fill="#7a1414" filter="url(#resultGlow)"/>
  <circle cx="115" cy="734" r="36" fill="none" stroke="#e8c04a" stroke-width="3"/>
  <text x="115" y="742" font-family="Georgia, serif" font-size="28" fill="white" text-anchor="middle" font-weight="bold">19</text>
  <text x="115" y="760" font-family="Georgia, serif" font-size="10" fill="#cc4444" text-anchor="middle">RED</text>

  <!-- Win info -->
  <text x="228" y="694" font-family="Georgia, serif" font-size="12" fill="#9a8a7a" text-anchor="middle">YOU WON</text>
  <text x="228" y="722" font-family="Georgia, serif" font-size="32" fill="#e8c04a" text-anchor="middle" font-weight="bold" filter="url(#glow)">+175</text>
  <text x="228" y="738" font-family="Georgia, serif" font-size="11" fill="#c8b050" text-anchor="middle">chips</text>
  <text x="228" y="758" font-family="Georgia, serif" font-size="11" fill="#7a9a7a" text-anchor="middle">Score: 240 / 600</text>

  <!-- Tap to continue -->
  <text x="195" y="792" font-family="Georgia, serif" font-size="13" fill="#e8c04a" text-anchor="middle" opacity="0.85">tap anywhere to continue</text>

  <!-- Gold particles -->
  <circle cx="90" cy="675" r="3" fill="#e8c04a" opacity="0.8"/>
  <circle cx="310" cy="680" r="2" fill="#e8c04a" opacity="0.6"/>
  <circle cx="75" cy="700" r="2" fill="#e8c04a" opacity="0.5"/>
  <circle cx="325" cy="710" r="3" fill="#e8c04a" opacity="0.7"/>
  <circle cx="160" cy="668" r="2" fill="#e8c04a" opacity="0.6"/>
  <circle cx="280" cy="666" r="2.5" fill="#e8c04a" opacity="0.7"/>

  <!-- Corner label -->
  <text x="195" y="838" font-family="Georgia, serif" font-size="9" fill="#3a3030" text-anchor="middle">WHEEL + RESULT SCREEN</text>
</svg>