<svg xmlns="http://www.w3.org/2000/svg" width="860" height="920" viewBox="0 0 860 920">
  <defs>
    <marker id="arrow" viewBox="0 0 10 10" refX="9" refY="5" markerWidth="8" markerHeight="8" orient="auto-start-reverse">
      <path d="M 0 0 L 10 5 L 0 10 z" fill="#e8c04a"/>
    </marker>
  </defs>

  <!-- Dark background -->
  <rect width="860" height="920" fill="#08060f" rx="16"/>

  <!-- Title -->
  <text x="430" y="44" font-family="Georgia, serif" font-size="22" fill="#e8c04a" text-anchor="middle" font-weight="bold">ROULETTE ROGUELITE — SCREEN FLOW</text>
  <line x1="60" y1="56" x2="800" y2="56" stroke="#3a2a5a" stroke-width="1.5"/>

  <!-- ── LEFT: BETTING ─────────────────────────── -->
  <text x="215" y="88" font-family="Georgia, serif" font-size="15" fill="#c8b878" text-anchor="middle" font-weight="bold">① BETTING SCREEN</text>

  <!-- Phone frame -->
  <rect x="60" y="96" width="310" height="780" rx="28" fill="#1a1624" stroke="#3a2a5a" stroke-width="2"/>
  <rect x="72" y="108" width="286" height="756" rx="20" fill="#0d0a14"/>

  <!-- HUD -->
  <rect x="72" y="108" width="286" height="72" rx="0" fill="#0c0919"/>
  <text x="86" y="126" font-family="Georgia, serif" font-size="9" fill="#c8b878" font-weight="bold">THE VELVET ROOM  ·  Floor 1</text>
  <text x="348" y="126" font-family="Georgia, serif" font-size="14" fill="#e8c04a" text-anchor="end" font-weight="bold">♦ 340</text>
  <text x="86" y="140" font-family="Georgia, serif" font-size="9" fill="#9a8a7a">SCORE  240 / 600</text>
  <text x="348" y="140" font-family="Georgia, serif" font-size="9" fill="#9a8a7a" text-anchor="end">⟳ 3 spins</text>
  <rect x="86" y="148" width="262" height="10" rx="5" fill="#0a0a14"/>
  <rect x="86" y="148" width="104" height="10" rx="5" fill="#c8901a" opacity="0.9"/>
  <line x1="72" y1="180" x2="358" y2="180" stroke="#2a1a4a" stroke-width="1"/>

  <!-- Zero -->
  <rect x="80" y="184" width="270" height="28" rx="3" fill="#1a5c2a"/>
  <text x="215" y="203" font-family="Georgia, serif" font-size="12" fill="white" text-anchor="middle" font-weight="bold">0</text>

  <!-- Number grid (simplified) -->
  <rect x="80" y="216" width="86" height="24" rx="2" fill="#6a1414" stroke="#aa2828" stroke-width="0.8"/>
  <text x="123" y="232" font-family="Georgia, serif" font-size="9" fill="white" text-anchor="middle" font-weight="bold">1</text>
  <rect x="170" y="216" width="86" height="24" rx="2" fill="#1a1a1a" stroke="#303030" stroke-width="0.8"/>
  <text x="213" y="232" font-family="Georgia, serif" font-size="9" fill="white" text-anchor="middle" font-weight="bold">2</text>
  <rect x="260" y="216" width="86" height="24" rx="2" fill="#6a1414" stroke="#aa2828" stroke-width="0.8"/>
  <text x="303" y="232" font-family="Georgia, serif" font-size="9" fill="white" text-anchor="middle" font-weight="bold">3</text>
  <rect x="80" y="244" width="86" height="24" rx="2" fill="#1a1a1a" stroke="#303030" stroke-width="0.8"/>
  <text x="123" y="260" font-family="Georgia, serif" font-size="9" fill="white" text-anchor="middle" font-weight="bold">4</text>
  <rect x="170" y="244" width="86" height="24" rx="2" fill="#6a1414" stroke="#aa2828" stroke-width="0.8"/>
  <text x="213" y="260" font-family="Georgia, serif" font-size="9" fill="white" text-anchor="middle" font-weight="bold">5</text>
  <rect x="260" y="244" width="86" height="24" rx="2" fill="#1a1a1a" stroke="#303030" stroke-width="0.8"/>
  <text x="303" y="260" font-family="Georgia, serif" font-size="9" fill="white" text-anchor="middle" font-weight="bold">6</text>
  <rect x="80" y="272" width="86" height="24" rx="2" fill="#6a1414" stroke="#aa2828" stroke-width="0.8"/>
  <text x="123" y="288" font-family="Georgia, serif" font-size="9" fill="white" text-anchor="middle" font-weight="bold">7</text>
  <rect x="170" y="272" width="86" height="24" rx="2" fill="#1a1a1a" stroke="#303030" stroke-width="0.8"/>
  <text x="213" y="288" font-family="Georgia, serif" font-size="9" fill="white" text-anchor="middle" font-weight="bold">8</text>
  <rect x="260" y="272" width="86" height="24" rx="2" fill="#6a1414" stroke="#aa2828" stroke-width="0.8"/>
  <text x="303" y="288" font-family="Georgia, serif" font-size="9" fill="white" text-anchor="middle" font-weight="bold">9</text>
  <rect x="80" y="300" width="86" height="24" rx="2" fill="#1a1a1a" stroke="#303030" stroke-width="0.8"/>
  <text x="123" y="316" font-family="Georgia, serif" font-size="9" fill="white" text-anchor="middle" font-weight="bold">10</text>
  <rect x="170" y="300" width="86" height="24" rx="2" fill="#1a1a1a" stroke="#303030" stroke-width="0.8"/>
  <text x="213" y="316" font-family="Georgia, serif" font-size="9" fill="white" text-anchor="middle" font-weight="bold">11</text>
  <rect x="260" y="300" width="86" height="24" rx="2" fill="#6a1414" stroke="#aa2828" stroke-width="0.8"/>
  <text x="303" y="316" font-family="Georgia, serif" font-size="9" fill="white" text-anchor="middle" font-weight="bold">12</text>
  <rect x="80" y="328" width="86" height="24" rx="2" fill="#1a1a1a" stroke="#303030" stroke-width="0.8"/>
  <text x="123" y="344" font-family="Georgia, serif" font-size="9" fill="white" text-anchor="middle" font-weight="bold">13</text>
  <rect x="170" y="328" width="86" height="24" rx="2" fill="#6a1414" stroke="#aa2828" stroke-width="0.8"/>
  <text x="213" y="344" font-family="Georgia, serif" font-size="9" fill="white" text-anchor="middle" font-weight="bold">14</text>
  <rect x="260" y="328" width="86" height="24" rx="2" fill="#1a1a1a" stroke="#303030" stroke-width="0.8"/>
  <text x="303" y="344" font-family="Georgia, serif" font-size="9" fill="white" text-anchor="middle" font-weight="bold">15</text>
  <rect x="80" y="356" width="86" height="24" rx="2" fill="#6a1414" stroke="#aa2828" stroke-width="0.8"/>
  <text x="123" y="372" font-family="Georgia, serif" font-size="9" fill="white" text-anchor="middle" font-weight="bold">16</text>
  <rect x="170" y="356" width="86" height="24" rx="2" fill="#1a1a1a" stroke="#303030" stroke-width="0.8"/>
  <text x="213" y="372" font-family="Georgia, serif" font-size="9" fill="white" text-anchor="middle" font-weight="bold">17</text>
  <rect x="260" y="356" width="86" height="24" rx="2" fill="#6a1414" stroke="#aa2828" stroke-width="0.8"/>
  <text x="303" y="372" font-family="Georgia, serif" font-size="9" fill="white" text-anchor="middle" font-weight="bold">18</text>
  <rect x="80" y="384" width="86" height="24" rx="2" fill="#6a1414" stroke="#aa2828" stroke-width="0.8"/>
  <text x="123" y="400" font-family="Georgia, serif" font-size="9" fill="white" text-anchor="middle" font-weight="bold">19</text>
  <rect x="170" y="384" width="86" height="24" rx="2" fill="#1a1a1a" stroke="#303030" stroke-width="0.8"/>
  <text x="213" y="400" font-family="Georgia, serif" font-size="9" fill="white" text-anchor="middle" font-weight="bold">20</text>
  <rect x="260" y="384" width="86" height="24" rx="2" fill="#6a1414" stroke="#aa2828" stroke-width="0.8"/>
  <text x="303" y="400" font-family="Georgia, serif" font-size="9" fill="white" text-anchor="middle" font-weight="bold">21</text>
  <rect x="80" y="412" width="86" height="24" rx="2" fill="#1a1a1a" stroke="#303030" stroke-width="0.8"/>
  <text x="123" y="428" font-family="Georgia, serif" font-size="9" fill="white" text-anchor="middle" font-weight="bold">22</text>
  <rect x="170" y="412" width="86" height="24" rx="2" fill="#6a1414" stroke="#aa2828" stroke-width="0.8"/>
  <text x="213" y="428" font-family="Georgia, serif" font-size="9" fill="white" text-anchor="middle" font-weight="bold">23</text>
  <rect x="260" y="412" width="86" height="24" rx="2" fill="#1a1a1a" stroke="#303030" stroke-width="0.8"/>
  <text x="303" y="428" font-family="Georgia, serif" font-size="9" fill="white" text-anchor="middle" font-weight="bold">24</text>
  <rect x="80" y="440" width="86" height="24" rx="2" fill="#6a1414" stroke="#aa2828" stroke-width="0.8"/>
  <text x="123" y="456" font-family="Georgia, serif" font-size="9" fill="white" text-anchor="middle" font-weight="bold">25</text>
  <rect x="170" y="440" width="86" height="24" rx="2" fill="#1a1a1a" stroke="#303030" stroke-width="0.8"/>
  <text x="213" y="456" font-family="Georgia, serif" font-size="9" fill="white" text-anchor="middle" font-weight="bold">26</text>
  <rect x="260" y="440" width="86" height="24" rx="2" fill="#6a1414" stroke="#aa2828" stroke-width="0.8"/>
  <text x="303" y="456" font-family="Georgia, serif" font-size="9" fill="white" text-anchor="middle" font-weight="bold">27</text>
  <rect x="80" y="468" width="86" height="24" rx="2" fill="#1a1a1a" stroke="#303030" stroke-width="0.8"/>
  <text x="123" y="484" font-family="Georgia, serif" font-size="9" fill="white" text-anchor="middle" font-weight="bold">28</text>
  <rect x="170" y="468" width="86" height="24" rx="2" fill="#1a1a1a" stroke="#303030" stroke-width="0.8"/>
  <text x="213" y="484" font-family="Georgia, serif" font-size="9" fill="white" text-anchor="middle" font-weight="bold">29</text>
  <rect x="260" y="468" width="86" height="24" rx="2" fill="#6a1414" stroke="#aa2828" stroke-width="0.8"/>
  <text x="303" y="484" font-family="Georgia, serif" font-size="9" fill="white" text-anchor="middle" font-weight="bold">30</text>
  <rect x="80" y="496" width="86" height="24" rx="2" fill="#1a1a1a" stroke="#303030" stroke-width="0.8"/>
  <text x="123" y="512" font-family="Georgia, serif" font-size="9" fill="white" text-anchor="middle" font-weight="bold">31</text>
  <rect x="170" y="496" width="86" height="24" rx="2" fill="#6a1414" stroke="#aa2828" stroke-width="0.8"/>
  <text x="213" y="512" font-family="Georgia, serif" font-size="9" fill="white" text-anchor="middle" font-weight="bold">32</text>
  <rect x="260" y="496" width="86" height="24" rx="2" fill="#1a1a1a" stroke="#303030" stroke-width="0.8"/>
  <text x="303" y="512" font-family="Georgia, serif" font-size="9" fill="white" text-anchor="middle" font-weight="bold">33</text>
  <rect x="80" y="524" width="86" height="24" rx="2" fill="#6a1414" stroke="#aa2828" stroke-width="0.8"/>
  <text x="123" y="540" font-family="Georgia, serif" font-size="9" fill="white" text-anchor="middle" font-weight="bold">34</text>
  <rect x="170" y="524" width="86" height="24" rx="2" fill="#1a1a1a" stroke="#303030" stroke-width="0.8"/>
  <text x="213" y="540" font-family="Georgia, serif" font-size="9" fill="white" text-anchor="middle" font-weight="bold">35</text>
  <rect x="260" y="524" width="86" height="24" rx="2" fill="#6a1414" stroke="#aa2828" stroke-width="0.8"/>
  <text x="303" y="540" font-family="Georgia, serif" font-size="9" fill="white" text-anchor="middle" font-weight="bold">36</text>
  <rect x="80" y="554" width="87" height="22" rx="2" fill="#0d1f0d" stroke="#2a4a2a" stroke-width="1"/>
  <text x="123" y="569" font-family="Georgia, serif" font-size="9" fill="#b8d090" text-anchor="middle">1st 12</text>
  <rect x="171" y="554" width="87" height="22" rx="2" fill="#0d1f0d" stroke="#2a4a2a" stroke-width="1"/>
  <text x="214" y="569" font-family="Georgia, serif" font-size="9" fill="#b8d090" text-anchor="middle">2nd 12</text>
  <rect x="262" y="554" width="87" height="22" rx="2" fill="#0d1f0d" stroke="#2a4a2a" stroke-width="1"/>
  <text x="305" y="569" font-family="Georgia, serif" font-size="9" fill="#b8d090" text-anchor="middle">3rd 12</text>
  <rect x="80" y="580" width="87" height="22" rx="2" fill="#0d1f0d" stroke="#2a4a2a" stroke-width="1"/>
  <text x="123" y="595" font-family="Georgia, serif" font-size="9" fill="#b8d090" text-anchor="middle">2 to 1</text>
  <rect x="171" y="580" width="87" height="22" rx="2" fill="#0d1f0d" stroke="#2a4a2a" stroke-width="1"/>
  <text x="214" y="595" font-family="Georgia, serif" font-size="9" fill="#b8d090" text-anchor="middle">2 to 1</text>
  <rect x="262" y="580" width="87" height="22" rx="2" fill="#0d1f0d" stroke="#2a4a2a" stroke-width="1"/>
  <text x="305" y="595" font-family="Georgia, serif" font-size="9" fill="#b8d090" text-anchor="middle">2 to 1</text>
  <rect x="80" y="606" width="41" height="26" rx="2" fill="#0d1f0d" stroke="#2a2a2a" stroke-width="1"/>
  <text x="100" y="623" font-family="Georgia, serif" font-size="8" fill="white" text-anchor="middle" font-weight="bold">1-18</text>
  <rect x="125" y="606" width="41" height="26" rx="2" fill="#0d1f0d" stroke="#2a2a2a" stroke-width="1"/>
  <text x="145" y="623" font-family="Georgia, serif" font-size="8" fill="white" text-anchor="middle" font-weight="bold">EVEN</text>
  <rect x="170" y="606" width="41" height="26" rx="2" fill="#6a1414" stroke="#2a2a2a" stroke-width="1"/>
  <text x="190" y="623" font-family="Georgia, serif" font-size="8" fill="white" text-anchor="middle" font-weight="bold">RED</text>
  <rect x="215" y="606" width="41" height="26" rx="2" fill="#141414" stroke="#2a2a2a" stroke-width="1"/>
  <text x="235" y="623" font-family="Georgia, serif" font-size="8" fill="white" text-anchor="middle" font-weight="bold">BLK</text>
  <rect x="260" y="606" width="41" height="26" rx="2" fill="#0d1f0d" stroke="#2a2a2a" stroke-width="1"/>
  <text x="280" y="623" font-family="Georgia, serif" font-size="8" fill="white" text-anchor="middle" font-weight="bold">ODD</text>
  <rect x="305" y="606" width="41" height="26" rx="2" fill="#0d1f0d" stroke="#2a2a2a" stroke-width="1"/>
  <text x="325" y="623" font-family="Georgia, serif" font-size="8" fill="white" text-anchor="middle" font-weight="bold">19-36</text>

  <!-- Chip bar -->
  <rect x="72" y="640" width="286" height="42" rx="0" fill="#080c08"/>
  <circle cx="104" cy="661" r="15" fill="#d0c8b8" stroke="#f0e8d8" stroke-width="2"/>
  <text x="104" y="666" font-family="Georgia" font-size="9" fill="#1a1a1a" text-anchor="middle" font-weight="bold">1</text>
  <circle cx="142" cy="661" r="15" fill="#1a4a8a" stroke="#4a7acc" stroke-width="2"/>
  <text x="142" y="666" font-family="Georgia" font-size="9" fill="white" text-anchor="middle" font-weight="bold">5</text>
  <circle cx="180" cy="659" r="18" fill="#8a1a1a" stroke="#e8c04a" stroke-width="3"/>
  <text x="180" y="664" font-family="Georgia" font-size="9" fill="white" text-anchor="middle" font-weight="bold">25</text>
  <circle cx="220" cy="661" r="15" fill="#4a1a6a" stroke="#8a4aaa" stroke-width="2"/>
  <text x="220" y="666" font-family="Georgia" font-size="9" fill="white" text-anchor="middle" font-weight="bold">100</text>
  <circle cx="258" cy="661" r="15" fill="#6a4a0a" stroke="#c8901a" stroke-width="2"/>
  <text x="258" y="666" font-family="Georgia" font-size="9" fill="#e8c04a" text-anchor="middle" font-weight="bold">500</text>

  <!-- Spin button -->
  <rect x="80" y="684" width="270" height="38" rx="8" fill="#c8a030" stroke="#f0d060" stroke-width="1.5"/>
  <text x="215" y="708" font-family="Georgia, serif" font-size="15" fill="#1a1000" text-anchor="middle" font-weight="bold">SPIN THE WHEEL →</text>

  <!-- ─── TRANSITION ARROW ───────────────────── -->
  <!-- Animated transition label -->
  <rect x="370" y="440" width="120" height="52" rx="10" fill="#1a1428" stroke="#e8c04a" stroke-width="1.5"/>
  <text x="430" y="460" font-family="Georgia, serif" font-size="11" fill="#e8c04a" text-anchor="middle">SPIN</text>
  <text x="430" y="476" font-family="Georgia, serif" font-size="11" fill="#c8b050" text-anchor="middle">PRESSED</text>
  <text x="430" y="490" font-family="Georgia, serif" font-size="9" fill="#7a6a5a" text-anchor="middle">slide up anim</text>

  <!-- Arrows -->
  <line x1="362" y1="466" x2="290" y2="466" stroke="#e8c04a" stroke-width="2" marker-end="url(#arrow)" stroke-dasharray="6,3"/>
  <line x1="498" y1="466" x2="568" y2="466" stroke="#e8c04a" stroke-width="2" marker-end="url(#arrow)"/>

  <!-- Back arrow -->
  <rect x="370" y="516" width="120" height="52" rx="10" fill="#1a1428" stroke="#9a8a9a" stroke-width="1.5"/>
  <text x="430" y="536" font-family="Georgia, serif" font-size="11" fill="#c8b878" text-anchor="middle">RESULT</text>
  <text x="430" y="552" font-family="Georgia, serif" font-size="11" fill="#9a8a9a" text-anchor="middle">DISMISSED</text>
  <text x="430" y="566" font-family="Georgia, serif" font-size="9" fill="#7a6a5a" text-anchor="middle">slide down anim</text>

  <line x1="430" y1="516" x2="430" y2="498" stroke="#9a8a9a" stroke-width="1.5" stroke-dasharray="4,3"/>
  <line x1="490" y1="568" x2="570" y2="568" stroke="#9a8a9a" stroke-width="1.5" marker-end="url(#arrow)" stroke-dasharray="6,3"/>
  <line x1="370" y1="568" x2="290" y2="568" stroke="#9a8a9a" stroke-width="1.5" marker-end="url(#arrow)"/>

  <!-- ── RIGHT: WHEEL ───────────────────────── -->
  <text x="645" y="88" font-family="Georgia, serif" font-size="15" fill="#c8b878" text-anchor="middle" font-weight="bold">② WHEEL + RESULT SCREEN</text>

  <!-- Phone frame -->
  <rect x="490" y="96" width="310" height="780" rx="28" fill="#1a1624" stroke="#3a2a5a" stroke-width="2"/>
  <rect x="502" y="108" width="286" height="756" rx="20" fill="#05040e"/>

  <!-- HUD same as left -->
  <rect x="502" y="108" width="286" height="72" rx="0" fill="#0c0919"/>
  <text x="516" y="126" font-family="Georgia, serif" font-size="9" fill="#c8b878" font-weight="bold">THE VELVET ROOM  ·  Floor 1</text>
  <text x="778" y="126" font-family="Georgia, serif" font-size="14" fill="#e8c04a" text-anchor="end" font-weight="bold">♦ 515</text>
  <text x="516" y="140" font-family="Georgia, serif" font-size="9" fill="#9a8a7a">SCORE  415 / 600</text>
  <text x="778" y="140" font-family="Georgia, serif" font-size="9" fill="#9a8a7a" text-anchor="end">⟳ 2 spins</text>
  <rect x="516" y="148" width="262" height="10" rx="5" fill="#0a0a14"/>
  <rect x="516" y="148" width="181" height="10" rx="5" fill="#c8901a" opacity="0.9"/>
  <line x1="502" y1="180" x2="788" y2="180" stroke="#2a1a4a" stroke-width="1"/>
  <path d="M 645.0,246.0 A 164,164 0 0,1 672.7,248.4 L 652.1,368.6 A 42,42 0 0,0 645.0,368.0 Z" fill="#1a6a2a" stroke="#2aaa3a" stroke-width="0.7"/>
  <text x="656.4" y="276.5" font-family="Georgia, serif" font-size="8.5" fill="white" text-anchor="middle" dominant-baseline="middle" transform="rotate(4.9,656.4,276.5)" font-weight="bold" opacity="0.9">0</text>
  <path d="M 672.7,248.4 A 164,164 0 0,1 699.6,255.4 L 659.0,370.4 A 42,42 0 0,0 652.1,368.6 Z" fill="#7a1414" stroke="#cc2828" stroke-width="0.7"/>
  <text x="678.8" y="280.3" font-family="Georgia, serif" font-size="8.5" fill="white" text-anchor="middle" dominant-baseline="middle" transform="rotate(14.6,678.8,280.3)" font-weight="bold" opacity="0.9">32</text>
  <path d="M 699.6,255.4 A 164,164 0 0,1 725.0,266.8 L 665.5,373.3 A 42,42 0 0,0 659.0,370.4 Z" fill="#141414" stroke="#383838" stroke-width="0.7"/>
  <text x="700.2" y="287.9" font-family="Georgia, serif" font-size="8.5" fill="white" text-anchor="middle" dominant-baseline="middle" transform="rotate(24.3,700.2,287.9)" font-weight="bold" opacity="0.9">15</text>
  <path d="M 725.0,266.8 A 164,164 0 0,1 748.0,282.4 L 671.4,377.3 A 42,42 0 0,0 665.5,373.3 Z" fill="#7a1414" stroke="#cc2828" stroke-width="0.7"/>
  <text x="720.0" y="299.0" font-family="Georgia, serif" font-size="8.5" fill="white" text-anchor="middle" dominant-baseline="middle" transform="rotate(34.1,720.0,299.0)" font-weight="bold" opacity="0.9">19</text>
  <path d="M 748.0,282.4 A 164,164 0 0,1 768.1,301.6 L 676.5,382.3 A 42,42 0 0,0 671.4,377.3 Z" fill="#141414" stroke="#383838" stroke-width="0.7"/>
  <text x="737.7" y="313.3" font-family="Georgia, serif" font-size="8.5" fill="white" text-anchor="middle" dominant-baseline="middle" transform="rotate(43.8,737.7,313.3)" font-weight="bold" opacity="0.9">4</text>
  <path d="M 768.1,301.6 A 164,164 0 0,1 784.7,324.0 L 680.8,388.0 A 42,42 0 0,0 676.5,382.3 Z" fill="#7a1414" stroke="#cc2828" stroke-width="0.7"/>
  <text x="752.7" y="330.3" font-family="Georgia, serif" font-size="8.5" fill="white" text-anchor="middle" dominant-baseline="middle" transform="rotate(53.5,752.7,330.3)" font-weight="bold" opacity="0.9">21</text>
  <path d="M 784.7,324.0 A 164,164 0 0,1 797.2,348.9 L 684.0,394.3 A 42,42 0 0,0 680.8,388.0 Z" fill="#141414" stroke="#383838" stroke-width="0.7"/>
  <text x="764.7" y="349.7" font-family="Georgia, serif" font-size="8.5" fill="white" text-anchor="middle" dominant-baseline="middle" transform="rotate(63.2,764.7,349.7)" font-weight="bold" opacity="0.9">2</text>
  <path d="M 797.2,348.9 A 164,164 0 0,1 805.3,375.4 L 686.1,401.2 A 42,42 0 0,0 684.0,394.3 Z" fill="#7a1414" stroke="#cc2828" stroke-width="0.7"/>
  <text x="773.1" y="370.8" font-family="Georgia, serif" font-size="8.5" fill="white" text-anchor="middle" dominant-baseline="middle" transform="rotate(73.0,773.1,370.8)" font-weight="bold" opacity="0.9">25</text>
  <path d="M 805.3,375.4 A 164,164 0 0,1 808.9,403.0 L 687.0,408.2 A 42,42 0 0,0 686.1,401.2 Z" fill="#141414" stroke="#383838" stroke-width="0.7"/>
  <text x="777.9" y="393.0" font-family="Georgia, serif" font-size="8.5" fill="white" text-anchor="middle" dominant-baseline="middle" transform="rotate(82.7,777.9,393.0)" font-weight="bold" opacity="0.9">17</text>
  <path d="M 808.9,403.0 A 164,164 0 0,1 807.7,430.8 L 686.7,415.3 A 42,42 0 0,0 687.0,408.2 Z" fill="#7a1414" stroke="#cc2828" stroke-width="0.7"/>
  <text x="778.9" y="415.7" font-family="Georgia, serif" font-size="8.5" fill="white" text-anchor="middle" dominant-baseline="middle" transform="rotate(92.4,778.9,415.7)" font-weight="bold" opacity="0.9">34</text>
  <path d="M 807.7,430.8 A 164,164 0 0,1 801.8,458.0 L 685.2,422.3 A 42,42 0 0,0 686.7,415.3 Z" fill="#141414" stroke="#383838" stroke-width="0.7"/>
  <text x="776.0" y="438.2" font-family="Georgia, serif" font-size="8.5" fill="white" text-anchor="middle" dominant-baseline="middle" transform="rotate(102.2,776.0,438.2)" font-weight="bold" opacity="0.9">6</text>
  <path d="M 801.8,458.0 A 164,164 0 0,1 791.4,483.8 L 682.5,428.9 A 42,42 0 0,0 685.2,422.3 Z" fill="#7a1414" stroke="#cc2828" stroke-width="0.7"/>
  <text x="769.3" y="460.0" font-family="Georgia, serif" font-size="8.5" fill="white" text-anchor="middle" dominant-baseline="middle" transform="rotate(111.9,769.3,460.0)" font-weight="bold" opacity="0.9">27</text>
  <path d="M 791.4,483.8 A 164,164 0 0,1 776.9,507.5 L 678.8,435.0 A 42,42 0 0,0 682.5,428.9 Z" fill="#141414" stroke="#383838" stroke-width="0.7"/>
  <text x="759.1" y="480.3" font-family="Georgia, serif" font-size="8.5" fill="white" text-anchor="middle" dominant-baseline="middle" transform="rotate(121.6,759.1,480.3)" font-weight="bold" opacity="0.9">13</text>
  <path d="M 776.9,507.5 A 164,164 0 0,1 758.5,528.4 L 674.1,440.3 A 42,42 0 0,0 678.8,435.0 Z" fill="#7a1414" stroke="#cc2828" stroke-width="0.7"/>
  <text x="745.6" y="498.5" font-family="Georgia, serif" font-size="8.5" fill="white" text-anchor="middle" dominant-baseline="middle" transform="rotate(131.4,745.6,498.5)" font-weight="bold" opacity="0.9">36</text>
  <path d="M 758.5,528.4 A 164,164 0 0,1 736.8,545.9 L 668.5,444.8 A 42,42 0 0,0 674.1,440.3 Z" fill="#141414" stroke="#383838" stroke-width="0.7"/>
  <text x="729.2" y="514.3" font-family="Georgia, serif" font-size="8.5" fill="white" text-anchor="middle" dominant-baseline="middle" transform="rotate(141.1,729.2,514.3)" font-weight="bold" opacity="0.9">11</text>
  <path d="M 736.8,545.9 A 164,164 0 0,1 712.6,559.4 L 662.3,448.3 A 42,42 0 0,0 668.5,444.8 Z" fill="#7a1414" stroke="#cc2828" stroke-width="0.7"/>
  <text x="710.4" y="527.0" font-family="Georgia, serif" font-size="8.5" fill="white" text-anchor="middle" dominant-baseline="middle" transform="rotate(150.8,710.4,527.0)" font-weight="bold" opacity="0.9">30</text>
  <path d="M 712.6,559.4 A 164,164 0 0,1 686.3,568.7 L 655.6,450.6 A 42,42 0 0,0 662.3,448.3 Z" fill="#141414" stroke="#383838" stroke-width="0.7"/>
  <text x="689.6" y="536.3" font-family="Georgia, serif" font-size="8.5" fill="white" text-anchor="middle" dominant-baseline="middle" transform="rotate(160.5,689.6,536.3)" font-weight="bold" opacity="0.9">8</text>
  <path d="M 686.3,568.7 A 164,164 0 0,1 658.9,573.4 L 648.6,451.8 A 42,42 0 0,0 655.6,450.6 Z" fill="#7a1414" stroke="#cc2828" stroke-width="0.7"/>
  <text x="667.6" y="542.1" font-family="Georgia, serif" font-size="8.5" fill="white" text-anchor="middle" dominant-baseline="middle" transform="rotate(170.3,667.6,542.1)" font-weight="bold" opacity="0.9">23</text>
  <path d="M 658.9,573.4 A 164,164 0 0,1 631.1,573.4 L 641.4,451.8 A 42,42 0 0,0 648.6,451.8 Z" fill="#141414" stroke="#383838" stroke-width="0.7"/>
  <text x="645.0" y="544.0" font-family="Georgia, serif" font-size="8.5" fill="white" text-anchor="middle" dominant-baseline="middle" transform="rotate(180.0,645.0,544.0)" font-weight="bold" opacity="0.9">10</text>
  <path d="M 631.1,573.4 A 164,164 0 0,1 603.7,568.7 L 634.4,450.6 A 42,42 0 0,0 641.4,451.8 Z" fill="#7a1414" stroke="#cc2828" stroke-width="0.7"/>
  <text x="622.4" y="542.1" font-family="Georgia, serif" font-size="8.5" fill="white" text-anchor="middle" dominant-baseline="middle" transform="rotate(189.7,622.4,542.1)" font-weight="bold" opacity="0.9">5</text>
  <path d="M 603.7,568.7 A 164,164 0 0,1 577.4,559.4 L 627.7,448.3 A 42,42 0 0,0 634.4,450.6 Z" fill="#141414" stroke="#383838" stroke-width="0.7"/>
  <text x="600.4" y="536.3" font-family="Georgia, serif" font-size="8.5" fill="white" text-anchor="middle" dominant-baseline="middle" transform="rotate(199.5,600.4,536.3)" font-weight="bold" opacity="0.9">24</text>
  <path d="M 577.4,559.4 A 164,164 0 0,1 553.2,545.9 L 621.5,444.8 A 42,42 0 0,0 627.7,448.3 Z" fill="#7a1414" stroke="#cc2828" stroke-width="0.7"/>
  <text x="579.6" y="527.0" font-family="Georgia, serif" font-size="8.5" fill="white" text-anchor="middle" dominant-baseline="middle" transform="rotate(209.2,579.6,527.0)" font-weight="bold" opacity="0.9">16</text>
  <path d="M 553.2,545.9 A 164,164 0 0,1 531.5,528.4 L 615.9,440.3 A 42,42 0 0,0 621.5,444.8 Z" fill="#141414" stroke="#383838" stroke-width="0.7"/>
  <text x="560.8" y="514.3" font-family="Georgia, serif" font-size="8.5" fill="white" text-anchor="middle" dominant-baseline="middle" transform="rotate(218.9,560.8,514.3)" font-weight="bold" opacity="0.9">33</text>
  <path d="M 531.5,528.4 A 164,164 0 0,1 513.1,507.5 L 611.2,435.0 A 42,42 0 0,0 615.9,440.3 Z" fill="#7a1414" stroke="#cc2828" stroke-width="0.7"/>
  <text x="544.4" y="498.5" font-family="Georgia, serif" font-size="8.5" fill="white" text-anchor="middle" dominant-baseline="middle" transform="rotate(228.6,544.4,498.5)" font-weight="bold" opacity="0.9">1</text>
  <path d="M 513.1,507.5 A 164,164 0 0,1 498.6,483.8 L 607.5,428.9 A 42,42 0 0,0 611.2,435.0 Z" fill="#141414" stroke="#383838" stroke-width="0.7"/>
  <text x="530.9" y="480.3" font-family="Georgia, serif" font-size="8.5" fill="white" text-anchor="middle" dominant-baseline="middle" transform="rotate(238.4,530.9,480.3)" font-weight="bold" opacity="0.9">20</text>
  <path d="M 498.6,483.8 A 164,164 0 0,1 488.2,458.0 L 604.8,422.3 A 42,42 0 0,0 607.5,428.9 Z" fill="#7a1414" stroke="#cc2828" stroke-width="0.7"/>
  <text x="520.7" y="460.0" font-family="Georgia, serif" font-size="8.5" fill="white" text-anchor="middle" dominant-baseline="middle" transform="rotate(248.1,520.7,460.0)" font-weight="bold" opacity="0.9">14</text>
  <path d="M 488.2,458.0 A 164,164 0 0,1 482.3,430.8 L 603.3,415.3 A 42,42 0 0,0 604.8,422.3 Z" fill="#141414" stroke="#383838" stroke-width="0.7"/>
  <text x="514.0" y="438.2" font-family="Georgia, serif" font-size="8.5" fill="white" text-anchor="middle" dominant-baseline="middle" transform="rotate(257.8,514.0,438.2)" font-weight="bold" opacity="0.9">31</text>
  <path d="M 482.3,430.8 A 164,164 0 0,1 481.1,403.0 L 603.0,408.2 A 42,42 0 0,0 603.3,415.3 Z" fill="#7a1414" stroke="#cc2828" stroke-width="0.7"/>
  <text x="511.1" y="415.7" font-family="Georgia, serif" font-size="8.5" fill="white" text-anchor="middle" dominant-baseline="middle" transform="rotate(267.6,511.1,415.7)" font-weight="bold" opacity="0.9">9</text>
  <path d="M 481.1,403.0 A 164,164 0 0,1 484.7,375.4 L 603.9,401.2 A 42,42 0 0,0 603.0,408.2 Z" fill="#141414" stroke="#383838" stroke-width="0.7"/>
  <text x="512.1" y="393.0" font-family="Georgia, serif" font-size="8.5" fill="white" text-anchor="middle" dominant-baseline="middle" transform="rotate(277.3,512.1,393.0)" font-weight="bold" opacity="0.9">22</text>
  <path d="M 484.7,375.4 A 164,164 0 0,1 492.8,348.9 L 606.0,394.3 A 42,42 0 0,0 603.9,401.2 Z" fill="#7a1414" stroke="#cc2828" stroke-width="0.7"/>
  <text x="516.9" y="370.8" font-family="Georgia, serif" font-size="8.5" fill="white" text-anchor="middle" dominant-baseline="middle" transform="rotate(287.0,516.9,370.8)" font-weight="bold" opacity="0.9">18</text>
  <path d="M 492.8,348.9 A 164,164 0 0,1 505.3,324.0 L 609.2,388.0 A 42,42 0 0,0 606.0,394.3 Z" fill="#141414" stroke="#383838" stroke-width="0.7"/>
  <text x="525.3" y="349.7" font-family="Georgia, serif" font-size="8.5" fill="white" text-anchor="middle" dominant-baseline="middle" transform="rotate(296.8,525.3,349.7)" font-weight="bold" opacity="0.9">29</text>
  <path d="M 505.3,324.0 A 164,164 0 0,1 521.9,301.6 L 613.5,382.3 A 42,42 0 0,0 609.2,388.0 Z" fill="#7a1414" stroke="#cc2828" stroke-width="0.7"/>
  <text x="537.3" y="330.3" font-family="Georgia, serif" font-size="8.5" fill="white" text-anchor="middle" dominant-baseline="middle" transform="rotate(306.5,537.3,330.3)" font-weight="bold" opacity="0.9">7</text>
  <path d="M 521.9,301.6 A 164,164 0 0,1 542.0,282.4 L 618.6,377.3 A 42,42 0 0,0 613.5,382.3 Z" fill="#141414" stroke="#383838" stroke-width="0.7"/>
  <text x="552.3" y="313.3" font-family="Georgia, serif" font-size="8.5" fill="white" text-anchor="middle" dominant-baseline="middle" transform="rotate(316.2,552.3,313.3)" font-weight="bold" opacity="0.9">28</text>
  <path d="M 542.0,282.4 A 164,164 0 0,1 565.0,266.8 L 624.5,373.3 A 42,42 0 0,0 618.6,377.3 Z" fill="#7a1414" stroke="#cc2828" stroke-width="0.7"/>
  <text x="570.0" y="299.0" font-family="Georgia, serif" font-size="8.5" fill="white" text-anchor="middle" dominant-baseline="middle" transform="rotate(325.9,570.0,299.0)" font-weight="bold" opacity="0.9">12</text>
  <path d="M 565.0,266.8 A 164,164 0 0,1 590.4,255.4 L 631.0,370.4 A 42,42 0 0,0 624.5,373.3 Z" fill="#141414" stroke="#383838" stroke-width="0.7"/>
  <text x="589.8" y="287.9" font-family="Georgia, serif" font-size="8.5" fill="white" text-anchor="middle" dominant-baseline="middle" transform="rotate(335.7,589.8,287.9)" font-weight="bold" opacity="0.9">35</text>
  <path d="M 590.4,255.4 A 164,164 0 0,1 617.3,248.4 L 637.9,368.6 A 42,42 0 0,0 631.0,370.4 Z" fill="#7a1414" stroke="#cc2828" stroke-width="0.7"/>
  <text x="611.2" y="280.3" font-family="Georgia, serif" font-size="8.5" fill="white" text-anchor="middle" dominant-baseline="middle" transform="rotate(345.4,611.2,280.3)" font-weight="bold" opacity="0.9">3</text>
  <path d="M 617.3,248.4 A 164,164 0 0,1 645.0,246.0 L 645.0,368.0 A 42,42 0 0,0 637.9,368.6 Z" fill="#141414" stroke="#383838" stroke-width="0.7"/>
  <text x="633.6" y="276.5" font-family="Georgia, serif" font-size="8.5" fill="white" text-anchor="middle" dominant-baseline="middle" transform="rotate(355.1,633.6,276.5)" font-weight="bold" opacity="0.9">26</text>
  <polygon points="812.0,406.0 816.0,410.0 812.0,414.0 808.0,410.0" fill="#e8c04a"/>
  <polygon points="645.0,573.0 649.0,577.0 645.0,581.0 641.0,577.0" fill="#e8c04a"/>
  <polygon points="478.0,406.0 482.0,410.0 478.0,414.0 474.0,410.0" fill="#e8c04a"/>
  <polygon points="645.0,239.0 649.0,243.0 645.0,247.0 641.0,243.0" fill="#e8c04a"/>

  <circle cx="645" cy="410" r="169" fill="none" stroke="#c8901a" stroke-width="4" opacity="0.9"/>
  <circle cx="645" cy="410" r="42" fill="#1a0e06"/>
  <circle cx="645" cy="410" r="42" fill="none" stroke="#c8901a" stroke-width="2.5"/>
  <circle cx="645" cy="410" r="12" fill="#c8901a" opacity="0.9"/>
  <circle cx="645" cy="410" r="6" fill="#1a0e06"/>
  <circle cx="645" cy="410" r="3.5" fill="#e8c04a"/>

  <!-- Ball -->
  <circle cx="794.5" cy="340.3" r="6" fill="white"/>
  <circle cx="793.0" cy="338.8" r="2" fill="white" opacity="0.7"/>

  <!-- Dealer (compact) -->
  <rect x="506" y="596" width="80" height="70" rx="8" fill="#0e0e1e" opacity="0.9" stroke="#3a2a5a" stroke-width="1"/>
  <rect x="522" y="602" width="34" height="6" rx="1" fill="#1a1030"/>
  <rect x="527" y="604" width="24" height="18" rx="2" fill="#1a1030"/>
  <rect x="527" y="617" width="24" height="4" fill="#c8901a"/>
  <ellipse cx="539" cy="633" rx="13" ry="13" fill="#d4a87a"/>
  <circle cx="534" cy="630" r="2" fill="#2a1a5a"/>
  <circle cx="544" cy="630" r="2" fill="#2a1a5a"/>
  <path d="M 533,638 Q 539,642 545,638" fill="none" stroke="#8a4a3a" stroke-width="1.2"/>
  <rect x="526" y="645" width="26" height="20" rx="3" fill="#1a1030"/>
  <polygon points="539,646 536,650 539,660 542,650" fill="#c8901a"/>

  <!-- Speech bubble -->
  <rect x="592" y="604" width="100" height="32" rx="8" fill="#f5f0e4" opacity="0.95"/>
  <polygon points="592,616 582,622 592,628" fill="#f5f0e4" opacity="0.95"/>
  <text x="642" y="617" font-family="Georgia, serif" font-size="8.5" fill="#2a1a0a" text-anchor="middle">Well played.</text>
  <text x="642" y="629" font-family="Georgia, serif" font-size="8.5" fill="#6a5a4a" text-anchor="middle">Fortune smiles.</text>

  <!-- Result card overlay -->
  <rect x="510" y="645" width="270" height="110" rx="14" fill="#12001a" opacity="0.75"/>
  <rect x="518" y="651" width="254" height="98" rx="12" fill="#1a1428"/>
  <rect x="518" y="651" width="254" height="98" rx="12" fill="none" stroke="#e8c04a" stroke-width="2"/>

  <!-- Number -->
  <circle cx="565" cy="700" r="30" fill="#7a1414"/>
  <circle cx="565" cy="700" r="30" fill="none" stroke="#e8c04a" stroke-width="2.5"/>
  <text x="565" y="708" font-family="Georgia, serif" font-size="22" fill="white" text-anchor="middle" font-weight="bold">19</text>
  <text x="565" y="722" font-family="Georgia, serif" font-size="8" fill="#cc4444" text-anchor="middle">RED</text>

  <!-- Win -->
  <text x="668" y="680" font-family="Georgia, serif" font-size="10" fill="#9a8a7a" text-anchor="middle">YOU WON</text>
  <text x="668" y="706" font-family="Georgia, serif" font-size="26" fill="#e8c04a" text-anchor="middle" font-weight="bold">+175</text>
  <text x="668" y="720" font-family="Georgia, serif" font-size="9" fill="#c8b050" text-anchor="middle">chips</text>
  <text x="668" y="736" font-family="Georgia, serif" font-size="9" fill="#7a9a7a" text-anchor="middle">Score  415 / 600</text>

  <!-- Tap to continue -->
  <text x="645" y="780" font-family="Georgia, serif" font-size="11" fill="#e8c04a" text-anchor="middle" opacity="0.8">tap anywhere to continue</text>

  <!-- Particles -->
  <circle cx="530" cy="656" r="2.5" fill="#e8c04a" opacity="0.8"/>
  <circle cx="755" cy="660" r="2" fill="#e8c04a" opacity="0.6"/>
  <circle cx="518" cy="678" r="1.8" fill="#e8c04a" opacity="0.5"/>
  <circle cx="768" cy="674" r="2.5" fill="#e8c04a" opacity="0.7"/>

  <!-- Bottom legend -->
  <text x="430" y="892" font-family="Georgia, serif" font-size="11" fill="#5a4a6a" text-anchor="middle">Slide transition: betting table slides down, wheel rises from bottom on SPIN</text>
  <text x="430" y="908" font-family="Georgia, serif" font-size="11" fill="#5a4a6a" text-anchor="middle">Result card fades in after ball settles · Tap anywhere to dismiss</text>
</svg>